<svg width="288" height="181" viewBox="0 0 288 181" fill="none" xmlns="http://www.w3.org/2000/svg">
<path d="M0 9C0 4.58172 3.58172 1 8 1H40C44.4183 1 48 4.58172 48 9V41C48 45.4183 44.4183 49 40 49H8C3.58172 49 0 45.4183 0 41V9Z" fill="#FAE8E1"/>
<path d="M25.3125 21H32.6875L25.3125 13.6875V21ZM29.3125 27.6875V25H18.6875V27.6875H29.3125ZM29.3125 33V30.3125H18.6875V33H29.3125ZM26.6875 11.6875L34.6875 19.6875V35.6875C34.6875 36.3958 34.4167 37.0208 33.875 37.5625C33.3333 38.0625 32.7083 38.3125 32 38.3125H16C15.2917 38.3125 14.6667 38.0625 14.125 37.5625C13.5833 37.0208 13.3125 36.3958 13.3125 35.6875L13.375 14.3125C13.375 13.6042 13.625 13 14.125 12.5C14.6667 11.9583 15.2917 11.6875 16 11.6875H26.6875Z" fill="#CF6F49"/>
<path d="M10.4102 83.7148V86H3.25195V83.7148H10.4102ZM4.19922 71.7812V86H1.26953V71.7812H4.19922ZM16.7773 86.1953C15.957 86.1953 15.2214 86.0651 14.5703 85.8047C13.9193 85.5378 13.3659 85.1699 12.9102 84.7012C12.4609 84.2324 12.1159 83.6888 11.875 83.0703C11.6341 82.4453 11.5137 81.7812 11.5137 81.0781V80.6875C11.5137 79.8867 11.6276 79.1543 11.8555 78.4902C12.0833 77.8262 12.4089 77.25 12.832 76.7617C13.2617 76.2734 13.7826 75.8991 14.3945 75.6387C15.0065 75.3717 15.6966 75.2383 16.4648 75.2383C17.2135 75.2383 17.8776 75.362 18.457 75.6094C19.0365 75.8568 19.5215 76.2083 19.9121 76.6641C20.3092 77.1198 20.6087 77.6667 20.8105 78.3047C21.0124 78.9362 21.1133 79.6393 21.1133 80.4141V81.5859H12.7148V79.7109H18.3496V79.4961C18.3496 79.1055 18.278 78.7572 18.1348 78.4512C17.998 78.1387 17.7897 77.8913 17.5098 77.709C17.2298 77.5267 16.8717 77.4355 16.4355 77.4355C16.0645 77.4355 15.7454 77.5169 15.4785 77.6797C15.2116 77.8424 14.9935 78.0703 14.8242 78.3633C14.6615 78.6562 14.5378 79.0013 14.4531 79.3984C14.375 79.7891 14.3359 80.2188 14.3359 80.6875V81.0781C14.3359 81.5013 14.3945 81.8919 14.5117 82.25C14.6354 82.6081 14.8079 82.9173 15.0293 83.1777C15.2572 83.4382 15.5306 83.64 15.8496 83.7832C16.1751 83.9264 16.543 83.998 16.9531 83.998C17.4609 83.998 17.9329 83.9004 18.3691 83.7051C18.8118 83.5033 19.1927 83.2005 19.5117 82.7969L20.8789 84.2812C20.6576 84.6003 20.3548 84.9062 19.9707 85.1992C19.5931 85.4922 19.1374 85.7331 18.6035 85.9219C18.0697 86.1042 17.4609 86.1953 16.7773 86.1953ZM28.4277 83.0801C28.4277 82.8783 28.3691 82.696 28.252 82.5332C28.1348 82.3704 27.9167 82.2207 27.5977 82.084C27.2852 81.9408 26.8327 81.8105 26.2402 81.6934C25.7064 81.5762 25.2083 81.4297 24.7461 81.2539C24.2904 81.0716 23.8932 80.8535 23.5547 80.5996C23.2227 80.3457 22.9622 80.0462 22.7734 79.7012C22.5846 79.3496 22.4902 78.9492 22.4902 78.5C22.4902 78.0573 22.5846 77.6406 22.7734 77.25C22.9688 76.8594 23.2454 76.5143 23.6035 76.2148C23.9681 75.9089 24.4108 75.6712 24.9316 75.502C25.459 75.3262 26.0514 75.2383 26.709 75.2383C27.627 75.2383 28.4147 75.3848 29.0723 75.6777C29.7363 75.9707 30.2441 76.3743 30.5957 76.8887C30.9538 77.3965 31.1328 77.9759 31.1328 78.627H28.3203C28.3203 78.3535 28.2617 78.1094 28.1445 77.8945C28.0339 77.6732 27.8581 77.5007 27.6172 77.377C27.3828 77.2467 27.0768 77.1816 26.6992 77.1816C26.3867 77.1816 26.1165 77.237 25.8887 77.3477C25.6608 77.4518 25.485 77.5951 25.3613 77.7773C25.2441 77.9531 25.1855 78.1484 25.1855 78.3633C25.1855 78.526 25.2181 78.6725 25.2832 78.8027C25.3548 78.9264 25.4688 79.0404 25.625 79.1445C25.7812 79.2487 25.9831 79.3464 26.2305 79.4375C26.4844 79.5221 26.7969 79.6003 27.168 79.6719C27.9297 79.8281 28.61 80.0332 29.209 80.2871C29.8079 80.5345 30.2832 80.873 30.6348 81.3027C30.9863 81.7259 31.1621 82.2826 31.1621 82.9727C31.1621 83.4414 31.0579 83.8711 30.8496 84.2617C30.6413 84.6523 30.3418 84.9941 29.9512 85.2871C29.5605 85.5736 29.0918 85.7982 28.5449 85.9609C28.0046 86.1172 27.3958 86.1953 26.7188 86.1953C25.7357 86.1953 24.9023 86.0195 24.2188 85.668C23.5417 85.3164 23.0273 84.8704 22.6758 84.3301C22.3307 83.7832 22.1582 83.2233 22.1582 82.6504H24.8242C24.8372 83.0345 24.9349 83.3438 25.1172 83.5781C25.306 83.8125 25.5436 83.9818 25.8301 84.0859C26.123 84.1901 26.4388 84.2422 26.7773 84.2422C27.1419 84.2422 27.4447 84.1934 27.6855 84.0957C27.9264 83.9915 28.1087 83.8548 28.2324 83.6855C28.3626 83.5098 28.4277 83.3079 28.4277 83.0801ZM38.7012 83.0801C38.7012 82.8783 38.6426 82.696 38.5254 82.5332C38.4082 82.3704 38.1901 82.2207 37.8711 82.084C37.5586 81.9408 37.1061 81.8105 36.5137 81.6934C35.9798 81.5762 35.4818 81.4297 35.0195 81.2539C34.5638 81.0716 34.1667 80.8535 33.8281 80.5996C33.4961 80.3457 33.2357 80.0462 33.0469 79.7012C32.8581 79.3496 32.7637 78.9492 32.7637 78.5C32.7637 78.0573 32.8581 77.6406 33.0469 77.25C33.2422 76.8594 33.5189 76.5143 33.877 76.2148C34.2415 75.9089 34.6842 75.6712 35.2051 75.502C35.7324 75.3262 36.3249 75.2383 36.9824 75.2383C37.9004 75.2383 38.6882 75.3848 39.3457 75.6777C40.0098 75.9707 40.5176 76.3743 40.8691 76.8887C41.2272 77.3965 41.4062 77.9759 41.4062 78.627H38.5938C38.5938 78.3535 38.5352 78.1094 38.418 77.8945C38.3073 77.6732 38.1315 77.5007 37.8906 77.377C37.6562 77.2467 37.3503 77.1816 36.9727 77.1816C36.6602 77.1816 36.39 77.237 36.1621 77.3477C35.9342 77.4518 35.7585 77.5951 35.6348 77.7773C35.5176 77.9531 35.459 78.1484 35.459 78.3633C35.459 78.526 35.4915 78.6725 35.5566 78.8027C35.6283 78.9264 35.7422 79.0404 35.8984 79.1445C36.0547 79.2487 36.2565 79.3464 36.5039 79.4375C36.7578 79.5221 37.0703 79.6003 37.4414 79.6719C38.2031 79.8281 38.8835 80.0332 39.4824 80.2871C40.0814 80.5345 40.5566 80.873 40.9082 81.3027C41.2598 81.7259 41.4355 82.2826 41.4355 82.9727C41.4355 83.4414 41.3314 83.8711 41.123 84.2617C40.9147 84.6523 40.6152 84.9941 40.2246 85.2871C39.834 85.5736 39.3652 85.7982 38.8184 85.9609C38.278 86.1172 37.6693 86.1953 36.9922 86.1953C36.0091 86.1953 35.1758 86.0195 34.4922 85.668C33.8151 85.3164 33.3008 84.8704 32.9492 84.3301C32.6042 83.7832 32.4316 83.2233 32.4316 82.6504H35.0977C35.1107 83.0345 35.2083 83.3438 35.3906 83.5781C35.5794 83.8125 35.8171 83.9818 36.1035 84.0859C36.3965 84.1901 36.7122 84.2422 37.0508 84.2422C37.4154 84.2422 37.7181 84.1934 37.959 84.0957C38.1999 83.9915 38.3822 83.8548 38.5059 83.6855C38.6361 83.5098 38.7012 83.3079 38.7012 83.0801ZM51.0547 77.4648V90.0625H48.2422V75.4336H50.8496L51.0547 77.4648ZM57.7441 80.5996V80.8047C57.7441 81.5729 57.653 82.2858 57.4707 82.9434C57.2949 83.6009 57.0345 84.1738 56.6895 84.6621C56.3444 85.1439 55.9147 85.5215 55.4004 85.7949C54.8926 86.0618 54.3066 86.1953 53.6426 86.1953C52.998 86.1953 52.4382 86.0651 51.9629 85.8047C51.4876 85.5443 51.0872 85.1797 50.7617 84.7109C50.4427 84.2357 50.1855 83.6855 49.9902 83.0605C49.7949 82.4355 49.6452 81.765 49.541 81.0488V80.5117C49.6452 79.7435 49.7949 79.0404 49.9902 78.4023C50.1855 77.7578 50.4427 77.2012 50.7617 76.7324C51.0872 76.2572 51.4844 75.8893 51.9531 75.6289C52.4284 75.3685 52.985 75.2383 53.623 75.2383C54.2936 75.2383 54.8828 75.3652 55.3906 75.6191C55.9049 75.873 56.3346 76.2376 56.6797 76.7129C57.0312 77.1882 57.2949 77.7546 57.4707 78.4121C57.653 79.0697 57.7441 79.7988 57.7441 80.5996ZM54.9219 80.8047V80.5996C54.9219 80.1504 54.8828 79.737 54.8047 79.3594C54.7331 78.9753 54.6159 78.64 54.4531 78.3535C54.2969 78.0671 54.0885 77.8457 53.8281 77.6895C53.5742 77.5267 53.265 77.4453 52.9004 77.4453C52.5163 77.4453 52.1875 77.5072 51.9141 77.6309C51.6471 77.7546 51.429 77.9336 51.2598 78.168C51.0905 78.4023 50.9635 78.6823 50.8789 79.0078C50.7943 79.3333 50.7422 79.7012 50.7227 80.1113V81.4688C50.7552 81.9505 50.8464 82.3835 50.9961 82.7676C51.1458 83.1452 51.377 83.4447 51.6895 83.666C52.002 83.8874 52.4121 83.998 52.9199 83.998C53.291 83.998 53.6035 83.9167 53.8574 83.7539C54.1113 83.5846 54.3164 83.3535 54.4727 83.0605C54.6354 82.7676 54.7493 82.429 54.8145 82.0449C54.8861 81.6608 54.9219 81.2474 54.9219 80.8047ZM65.1953 83.6172V78.9102C65.1953 78.5716 65.14 78.2819 65.0293 78.041C64.9186 77.7936 64.7461 77.6016 64.5117 77.4648C64.2839 77.3281 63.9876 77.2598 63.623 77.2598C63.3105 77.2598 63.0404 77.3151 62.8125 77.4258C62.5846 77.5299 62.4089 77.6829 62.2852 77.8848C62.1615 78.0801 62.0996 78.3112 62.0996 78.5781H59.2871C59.2871 78.1289 59.3913 77.7025 59.5996 77.2988C59.8079 76.8952 60.1107 76.5404 60.5078 76.2344C60.9049 75.9219 61.377 75.6777 61.9238 75.502C62.4772 75.3262 63.0957 75.2383 63.7793 75.2383C64.5996 75.2383 65.3288 75.375 65.9668 75.6484C66.6048 75.9219 67.1061 76.332 67.4707 76.8789C67.8418 77.4258 68.0273 78.1094 68.0273 78.9297V83.4512C68.0273 84.0306 68.0632 84.5059 68.1348 84.877C68.2064 85.2415 68.3105 85.5605 68.4473 85.834V86H65.6055C65.4688 85.7135 65.3646 85.3555 65.293 84.9258C65.2279 84.4896 65.1953 84.0534 65.1953 83.6172ZM65.5664 79.5645L65.5859 81.1562H64.0137C63.6426 81.1562 63.3203 81.1986 63.0469 81.2832C62.7734 81.3678 62.5488 81.4883 62.373 81.6445C62.1973 81.7943 62.0671 81.9701 61.9824 82.1719C61.9043 82.3737 61.8652 82.5951 61.8652 82.8359C61.8652 83.0768 61.9206 83.2949 62.0312 83.4902C62.1419 83.679 62.3014 83.8288 62.5098 83.9395C62.7181 84.0436 62.9622 84.0957 63.2422 84.0957C63.6654 84.0957 64.0332 84.0111 64.3457 83.8418C64.6582 83.6725 64.8991 83.4642 65.0684 83.2168C65.2441 82.9694 65.3353 82.735 65.3418 82.5137L66.084 83.7051C65.9798 83.972 65.8366 84.2487 65.6543 84.5352C65.4785 84.8216 65.2539 85.0918 64.9805 85.3457C64.707 85.5931 64.3783 85.7982 63.9941 85.9609C63.61 86.1172 63.1543 86.1953 62.627 86.1953C61.9564 86.1953 61.3477 86.0618 60.8008 85.7949C60.2604 85.5215 59.8307 85.1471 59.5117 84.6719C59.1992 84.1901 59.043 83.6432 59.043 83.0312C59.043 82.4779 59.1471 81.9863 59.3555 81.5566C59.5638 81.127 59.8698 80.7656 60.2734 80.4727C60.6836 80.1732 61.1947 79.9486 61.8066 79.7988C62.4186 79.6426 63.1283 79.5645 63.9355 79.5645H65.5664ZM73.0078 77.4648V90.0625H70.1953V75.4336H72.8027L73.0078 77.4648ZM79.6973 80.5996V80.8047C79.6973 81.5729 79.6061 82.2858 79.4238 82.9434C79.248 83.6009 78.9876 84.1738 78.6426 84.6621C78.2975 85.1439 77.8678 85.5215 77.3535 85.7949C76.8457 86.0618 76.2598 86.1953 75.5957 86.1953C74.9512 86.1953 74.3913 86.0651 73.916 85.8047C73.4408 85.5443 73.0404 85.1797 72.7148 84.7109C72.3958 84.2357 72.1387 83.6855 71.9434 83.0605C71.748 82.4355 71.5983 81.765 71.4941 81.0488V80.5117C71.5983 79.7435 71.748 79.0404 71.9434 78.4023C72.1387 77.7578 72.3958 77.2012 72.7148 76.7324C73.0404 76.2572 73.4375 75.8893 73.9062 75.6289C74.3815 75.3685 74.9382 75.2383 75.5762 75.2383C76.2467 75.2383 76.8359 75.3652 77.3438 75.6191C77.8581 75.873 78.2878 76.2376 78.6328 76.7129C78.9844 77.1882 79.248 77.7546 79.4238 78.4121C79.6061 79.0697 79.6973 79.7988 79.6973 80.5996ZM76.875 80.8047V80.5996C76.875 80.1504 76.8359 79.737 76.7578 79.3594C76.6862 78.9753 76.569 78.64 76.4062 78.3535C76.25 78.0671 76.0417 77.8457 75.7812 77.6895C75.5273 77.5267 75.2181 77.4453 74.8535 77.4453C74.4694 77.4453 74.1406 77.5072 73.8672 77.6309C73.6003 77.7546 73.3822 77.9336 73.2129 78.168C73.0436 78.4023 72.9167 78.6823 72.832 79.0078C72.7474 79.3333 72.6953 79.7012 72.6758 80.1113V81.4688C72.7083 81.9505 72.7995 82.3835 72.9492 82.7676C73.099 83.1452 73.3301 83.4447 73.6426 83.666C73.9551 83.8874 74.3652 83.998 74.873 83.998C75.2441 83.998 75.5566 83.9167 75.8105 83.7539C76.0645 83.5846 76.2695 83.3535 76.4258 83.0605C76.5885 82.7676 76.7025 82.429 76.7676 82.0449C76.8392 81.6608 76.875 81.2474 76.875 80.8047ZM86.3086 86.1953C85.4883 86.1953 84.7526 86.0651 84.1016 85.8047C83.4505 85.5378 82.8971 85.1699 82.4414 84.7012C81.9922 84.2324 81.6471 83.6888 81.4062 83.0703C81.1654 82.4453 81.0449 81.7812 81.0449 81.0781V80.6875C81.0449 79.8867 81.1589 79.1543 81.3867 78.4902C81.6146 77.8262 81.9401 77.25 82.3633 76.7617C82.793 76.2734 83.3138 75.8991 83.9258 75.6387C84.5378 75.3717 85.2279 75.2383 85.9961 75.2383C86.7448 75.2383 87.4089 75.362 87.9883 75.6094C88.5677 75.8568 89.0527 76.2083 89.4434 76.6641C89.8405 77.1198 90.14 77.6667 90.3418 78.3047C90.5436 78.9362 90.6445 79.6393 90.6445 80.4141V81.5859H82.2461V79.7109H87.8809V79.4961C87.8809 79.1055 87.8092 78.7572 87.666 78.4512C87.5293 78.1387 87.321 77.8913 87.041 77.709C86.7611 77.5267 86.403 77.4355 85.9668 77.4355C85.5957 77.4355 85.2767 77.5169 85.0098 77.6797C84.7428 77.8424 84.5247 78.0703 84.3555 78.3633C84.1927 78.6562 84.069 79.0013 83.9844 79.3984C83.9062 79.7891 83.8672 80.2188 83.8672 80.6875V81.0781C83.8672 81.5013 83.9258 81.8919 84.043 82.25C84.1667 82.6081 84.3392 82.9173 84.5605 83.1777C84.7884 83.4382 85.0618 83.64 85.3809 83.7832C85.7064 83.9264 86.0742 83.998 86.4844 83.998C86.9922 83.998 87.4642 83.9004 87.9004 83.7051C88.3431 83.5033 88.724 83.2005 89.043 82.7969L90.4102 84.2812C90.1888 84.6003 89.8861 84.9062 89.502 85.1992C89.1243 85.4922 88.6686 85.7331 88.1348 85.9219C87.6009 86.1042 86.9922 86.1953 86.3086 86.1953ZM95.0586 77.7383V86H92.2461V75.4336H94.8926L95.0586 77.7383ZM98.2422 75.3652L98.1934 77.9727C98.0566 77.9531 97.8906 77.9368 97.6953 77.9238C97.5065 77.9043 97.334 77.8945 97.1777 77.8945C96.7806 77.8945 96.4355 77.9466 96.1426 78.0508C95.8561 78.1484 95.6152 78.2949 95.4199 78.4902C95.2311 78.6855 95.0879 78.9232 94.9902 79.2031C94.8991 79.4831 94.847 79.8021 94.834 80.1602L94.2676 79.9844C94.2676 79.3008 94.3359 78.6725 94.4727 78.0996C94.6094 77.5202 94.8079 77.0156 95.0684 76.5859C95.3353 76.1562 95.6608 75.8242 96.0449 75.5898C96.429 75.3555 96.8685 75.2383 97.3633 75.2383C97.5195 75.2383 97.679 75.2513 97.8418 75.2773C98.0046 75.2969 98.138 75.3262 98.2422 75.3652ZM107.568 83.2656L109.766 75.4336H111.553L110.977 78.5098L108.779 86H107.285L107.568 83.2656ZM106.455 75.4336L108.027 83.2559L108.174 86H106.416L103.74 75.4336H106.455ZM113.564 83.1289L115.098 75.4336H117.822L115.146 86H113.398L113.564 83.1289ZM111.797 75.4336L113.984 83.207L114.287 86H112.783L110.586 78.5195L110.029 75.4336H111.797ZM118.789 80.8242V80.6191C118.789 79.8444 118.9 79.1315 119.121 78.4805C119.342 77.8229 119.665 77.2533 120.088 76.7715C120.511 76.2897 121.032 75.9154 121.65 75.6484C122.269 75.375 122.979 75.2383 123.779 75.2383C124.58 75.2383 125.293 75.375 125.918 75.6484C126.543 75.9154 127.067 76.2897 127.49 76.7715C127.92 77.2533 128.245 77.8229 128.467 78.4805C128.688 79.1315 128.799 79.8444 128.799 80.6191V80.8242C128.799 81.5924 128.688 82.3053 128.467 82.9629C128.245 83.6139 127.92 84.1836 127.49 84.6719C127.067 85.1536 126.546 85.528 125.928 85.7949C125.309 86.0618 124.6 86.1953 123.799 86.1953C122.998 86.1953 122.285 86.0618 121.66 85.7949C121.042 85.528 120.518 85.1536 120.088 84.6719C119.665 84.1836 119.342 83.6139 119.121 82.9629C118.9 82.3053 118.789 81.5924 118.789 80.8242ZM121.602 80.6191V80.8242C121.602 81.2669 121.641 81.6803 121.719 82.0645C121.797 82.4486 121.921 82.7871 122.09 83.0801C122.266 83.3665 122.493 83.5911 122.773 83.7539C123.053 83.9167 123.395 83.998 123.799 83.998C124.189 83.998 124.525 83.9167 124.805 83.7539C125.085 83.5911 125.309 83.3665 125.479 83.0801C125.648 82.7871 125.771 82.4486 125.85 82.0645C125.934 81.6803 125.977 81.2669 125.977 80.8242V80.6191C125.977 80.1895 125.934 79.7858 125.85 79.4082C125.771 79.0241 125.645 78.6855 125.469 78.3926C125.299 78.0931 125.075 77.8587 124.795 77.6895C124.515 77.5202 124.176 77.4355 123.779 77.4355C123.382 77.4355 123.044 77.5202 122.764 77.6895C122.49 77.8587 122.266 78.0931 122.09 78.3926C121.921 78.6855 121.797 79.0241 121.719 79.4082C121.641 79.7858 121.602 80.1895 121.602 80.6191ZM133.34 77.7383V86H130.527V75.4336H133.174L133.34 77.7383ZM136.523 75.3652L136.475 77.9727C136.338 77.9531 136.172 77.9368 135.977 77.9238C135.788 77.9043 135.615 77.8945 135.459 77.8945C135.062 77.8945 134.717 77.9466 134.424 78.0508C134.137 78.1484 133.896 78.2949 133.701 78.4902C133.512 78.6855 133.369 78.9232 133.271 79.2031C133.18 79.4831 133.128 79.8021 133.115 80.1602L132.549 79.9844C132.549 79.3008 132.617 78.6725 132.754 78.0996C132.891 77.5202 133.089 77.0156 133.35 76.5859C133.617 76.1562 133.942 75.8242 134.326 75.5898C134.71 75.3555 135.15 75.2383 135.645 75.2383C135.801 75.2383 135.96 75.2513 136.123 75.2773C136.286 75.2969 136.419 75.3262 136.523 75.3652ZM140.664 70.9902V86H137.852V70.9902H140.664ZM147.324 75.4336L142.734 80.668L140.273 83.1582L139.248 81.127L141.201 78.6465L143.945 75.4336H147.324ZM144.404 86L141.279 81.1172L143.223 79.418L147.646 86H144.404Z" fill="#2A2C1F"/>
<path d="M8.1875 124.383H9.6875C9.60938 125.102 9.40365 125.745 9.07031 126.312C8.73698 126.88 8.26562 127.331 7.65625 127.664C7.04688 127.992 6.28646 128.156 5.375 128.156C4.70833 128.156 4.10156 128.031 3.55469 127.781C3.01302 127.531 2.54688 127.177 2.15625 126.719C1.76562 126.255 1.46354 125.701 1.25 125.055C1.04167 124.404 0.9375 123.68 0.9375 122.883V121.75C0.9375 120.953 1.04167 120.232 1.25 119.586C1.46354 118.935 1.76823 118.378 2.16406 117.914C2.5651 117.451 3.04688 117.094 3.60938 116.844C4.17188 116.594 4.80469 116.469 5.50781 116.469C6.36719 116.469 7.09375 116.63 7.6875 116.953C8.28125 117.276 8.74219 117.724 9.07031 118.297C9.40365 118.865 9.60938 119.523 9.6875 120.273H8.1875C8.11458 119.742 7.97917 119.286 7.78125 118.906C7.58333 118.521 7.30208 118.224 6.9375 118.016C6.57292 117.807 6.09635 117.703 5.50781 117.703C5.0026 117.703 4.55729 117.799 4.17188 117.992C3.79167 118.185 3.47135 118.458 3.21094 118.812C2.95573 119.167 2.76302 119.591 2.63281 120.086C2.5026 120.581 2.4375 121.13 2.4375 121.734V122.883C2.4375 123.44 2.49479 123.964 2.60938 124.453C2.72917 124.943 2.90885 125.372 3.14844 125.742C3.38802 126.112 3.69271 126.404 4.0625 126.617C4.43229 126.826 4.86979 126.93 5.375 126.93C6.01562 126.93 6.52604 126.828 6.90625 126.625C7.28646 126.422 7.57292 126.13 7.76562 125.75C7.96354 125.37 8.10417 124.914 8.1875 124.383ZM16.6953 126.047V119.547H18.1484V128H16.7656L16.6953 126.047ZM16.9688 124.266L17.5703 124.25C17.5703 124.812 17.5104 125.333 17.3906 125.812C17.276 126.286 17.0885 126.698 16.8281 127.047C16.5677 127.396 16.2266 127.669 15.8047 127.867C15.3828 128.06 14.8698 128.156 14.2656 128.156C13.8542 128.156 13.4766 128.096 13.1328 127.977C12.7943 127.857 12.5026 127.672 12.2578 127.422C12.013 127.172 11.8229 126.846 11.6875 126.445C11.5573 126.044 11.4922 125.562 11.4922 125V119.547H12.9375V125.016C12.9375 125.396 12.9792 125.711 13.0625 125.961C13.151 126.206 13.2682 126.401 13.4141 126.547C13.5651 126.688 13.7318 126.786 13.9141 126.844C14.1016 126.901 14.2943 126.93 14.4922 126.93C15.1068 126.93 15.5938 126.812 15.9531 126.578C16.3125 126.339 16.5703 126.018 16.7266 125.617C16.888 125.211 16.9688 124.76 16.9688 124.266ZM21.7969 120.875V128H20.3516V119.547H21.7578L21.7969 120.875ZM24.4375 119.5L24.4297 120.844C24.3099 120.818 24.1953 120.802 24.0859 120.797C23.9818 120.786 23.862 120.781 23.7266 120.781C23.3932 120.781 23.099 120.833 22.8438 120.938C22.5885 121.042 22.3724 121.188 22.1953 121.375C22.0182 121.562 21.8776 121.786 21.7734 122.047C21.6745 122.302 21.6094 122.583 21.5781 122.891L21.1719 123.125C21.1719 122.615 21.2214 122.135 21.3203 121.688C21.4245 121.24 21.5833 120.844 21.7969 120.5C22.0104 120.151 22.2812 119.88 22.6094 119.688C22.9427 119.49 23.3385 119.391 23.7969 119.391C23.901 119.391 24.0208 119.404 24.1562 119.43C24.2917 119.451 24.3854 119.474 24.4375 119.5ZM30.4453 126.555V122.203C30.4453 121.87 30.3776 121.581 30.2422 121.336C30.112 121.086 29.9141 120.893 29.6484 120.758C29.3828 120.622 29.0547 120.555 28.6641 120.555C28.2995 120.555 27.9792 120.617 27.7031 120.742C27.4323 120.867 27.2188 121.031 27.0625 121.234C26.9115 121.438 26.8359 121.656 26.8359 121.891H25.3906C25.3906 121.589 25.4688 121.289 25.625 120.992C25.7812 120.695 26.0052 120.427 26.2969 120.188C26.5938 119.943 26.9479 119.75 27.3594 119.609C27.776 119.464 28.2396 119.391 28.75 119.391C29.3646 119.391 29.9062 119.495 30.375 119.703C30.849 119.911 31.2188 120.227 31.4844 120.648C31.7552 121.065 31.8906 121.589 31.8906 122.219V126.156C31.8906 126.438 31.9141 126.737 31.9609 127.055C32.013 127.372 32.0885 127.646 32.1875 127.875V128H30.6797C30.6068 127.833 30.5495 127.612 30.5078 127.336C30.4661 127.055 30.4453 126.794 30.4453 126.555ZM30.6953 122.875L30.7109 123.891H29.25C28.8385 123.891 28.4714 123.924 28.1484 123.992C27.8255 124.055 27.5547 124.151 27.3359 124.281C27.1172 124.411 26.9505 124.576 26.8359 124.773C26.7214 124.966 26.6641 125.193 26.6641 125.453C26.6641 125.719 26.724 125.961 26.8438 126.18C26.9635 126.398 27.1432 126.573 27.3828 126.703C27.6276 126.828 27.9271 126.891 28.2812 126.891C28.724 126.891 29.1146 126.797 29.4531 126.609C29.7917 126.422 30.0599 126.193 30.2578 125.922C30.4609 125.651 30.5703 125.388 30.5859 125.133L31.2031 125.828C31.1667 126.047 31.0677 126.289 30.9062 126.555C30.7448 126.82 30.5286 127.076 30.2578 127.32C29.9922 127.56 29.6745 127.76 29.3047 127.922C28.9401 128.078 28.5286 128.156 28.0703 128.156C27.4974 128.156 26.9948 128.044 26.5625 127.82C26.1354 127.596 25.8021 127.297 25.5625 126.922C25.3281 126.542 25.2109 126.117 25.2109 125.648C25.2109 125.195 25.2995 124.797 25.4766 124.453C25.6536 124.104 25.9089 123.815 26.2422 123.586C26.5755 123.352 26.9766 123.174 27.4453 123.055C27.9141 122.935 28.4375 122.875 29.0156 122.875H30.6953ZM34.1562 116H35.6094V126.359L35.4844 128H34.1562V116ZM41.3203 123.703V123.867C41.3203 124.482 41.2474 125.052 41.1016 125.578C40.9557 126.099 40.7422 126.552 40.4609 126.938C40.1797 127.323 39.8359 127.622 39.4297 127.836C39.0234 128.049 38.5573 128.156 38.0312 128.156C37.4948 128.156 37.0234 128.065 36.6172 127.883C36.2161 127.695 35.8776 127.427 35.6016 127.078C35.3255 126.729 35.1042 126.307 34.9375 125.812C34.776 125.318 34.6641 124.76 34.6016 124.141V123.422C34.6641 122.797 34.776 122.237 34.9375 121.742C35.1042 121.247 35.3255 120.826 35.6016 120.477C35.8776 120.122 36.2161 119.854 36.6172 119.672C37.0182 119.484 37.4844 119.391 38.0156 119.391C38.5469 119.391 39.0182 119.495 39.4297 119.703C39.8411 119.906 40.1849 120.198 40.4609 120.578C40.7422 120.958 40.9557 121.414 41.1016 121.945C41.2474 122.471 41.3203 123.057 41.3203 123.703ZM39.8672 123.867V123.703C39.8672 123.281 39.8281 122.885 39.75 122.516C39.6719 122.141 39.5469 121.812 39.375 121.531C39.2031 121.245 38.9766 121.021 38.6953 120.859C38.4141 120.693 38.0677 120.609 37.6562 120.609C37.2917 120.609 36.974 120.672 36.7031 120.797C36.4375 120.922 36.2109 121.091 36.0234 121.305C35.8359 121.513 35.6823 121.753 35.5625 122.023C35.4479 122.289 35.362 122.565 35.3047 122.852V124.734C35.388 125.099 35.5234 125.451 35.7109 125.789C35.9036 126.122 36.1589 126.396 36.4766 126.609C36.7995 126.823 37.1979 126.93 37.6719 126.93C38.0625 126.93 38.3958 126.852 38.6719 126.695C38.9531 126.534 39.1797 126.312 39.3516 126.031C39.5286 125.75 39.6589 125.424 39.7422 125.055C39.8255 124.685 39.8672 124.289 39.8672 123.867ZM44.7188 119.547V128H43.2656V119.547H44.7188ZM43.1562 117.305C43.1562 117.07 43.2266 116.872 43.3672 116.711C43.513 116.549 43.7266 116.469 44.0078 116.469C44.2839 116.469 44.4948 116.549 44.6406 116.711C44.7917 116.872 44.8672 117.07 44.8672 117.305C44.8672 117.529 44.7917 117.721 44.6406 117.883C44.4948 118.039 44.2839 118.117 44.0078 118.117C43.7266 118.117 43.513 118.039 43.3672 117.883C43.2266 117.721 43.1562 117.529 43.1562 117.305ZM50.5781 119.547V120.656H46.0078V119.547H50.5781ZM47.5547 117.492H49V125.906C49 126.193 49.0443 126.409 49.1328 126.555C49.2214 126.701 49.3359 126.797 49.4766 126.844C49.6172 126.891 49.7682 126.914 49.9297 126.914C50.0495 126.914 50.1745 126.904 50.3047 126.883C50.4401 126.857 50.5417 126.836 50.6094 126.82L50.6172 128C50.5026 128.036 50.3516 128.07 50.1641 128.102C49.9818 128.138 49.7604 128.156 49.5 128.156C49.1458 128.156 48.8203 128.086 48.5234 127.945C48.2266 127.805 47.9896 127.57 47.8125 127.242C47.6406 126.909 47.5547 126.461 47.5547 125.898V117.492ZM57.4453 126.047V119.547H58.8984V128H57.5156L57.4453 126.047ZM57.7188 124.266L58.3203 124.25C58.3203 124.812 58.2604 125.333 58.1406 125.812C58.026 126.286 57.8385 126.698 57.5781 127.047C57.3177 127.396 56.9766 127.669 56.5547 127.867C56.1328 128.06 55.6198 128.156 55.0156 128.156C54.6042 128.156 54.2266 128.096 53.8828 127.977C53.5443 127.857 53.2526 127.672 53.0078 127.422C52.763 127.172 52.5729 126.846 52.4375 126.445C52.3073 126.044 52.2422 125.562 52.2422 125V119.547H53.6875V125.016C53.6875 125.396 53.7292 125.711 53.8125 125.961C53.901 126.206 54.0182 126.401 54.1641 126.547C54.3151 126.688 54.4818 126.786 54.6641 126.844C54.8516 126.901 55.0443 126.93 55.2422 126.93C55.8568 126.93 56.3438 126.812 56.7031 126.578C57.0625 126.339 57.3203 126.018 57.4766 125.617C57.638 125.211 57.7188 124.76 57.7188 124.266ZM62.5469 120.875V128H61.1016V119.547H62.5078L62.5469 120.875ZM65.1875 119.5L65.1797 120.844C65.0599 120.818 64.9453 120.802 64.8359 120.797C64.7318 120.786 64.612 120.781 64.4766 120.781C64.1432 120.781 63.849 120.833 63.5938 120.938C63.3385 121.042 63.1224 121.188 62.9453 121.375C62.7682 121.562 62.6276 121.786 62.5234 122.047C62.4245 122.302 62.3594 122.583 62.3281 122.891L61.9219 123.125C61.9219 122.615 61.9714 122.135 62.0703 121.688C62.1745 121.24 62.3333 120.844 62.5469 120.5C62.7604 120.151 63.0312 119.88 63.3594 119.688C63.6927 119.49 64.0885 119.391 64.5469 119.391C64.651 119.391 64.7708 119.404 64.9062 119.43C65.0417 119.451 65.1354 119.474 65.1875 119.5ZM71.9375 121.172V131.25H70.4844V119.547H71.8125L71.9375 121.172ZM77.6328 123.703V123.867C77.6328 124.482 77.5599 125.052 77.4141 125.578C77.2682 126.099 77.0547 126.552 76.7734 126.938C76.4974 127.323 76.1562 127.622 75.75 127.836C75.3438 128.049 74.8776 128.156 74.3516 128.156C73.8151 128.156 73.3411 128.068 72.9297 127.891C72.5182 127.714 72.1693 127.456 71.8828 127.117C71.5964 126.779 71.3672 126.372 71.1953 125.898C71.0286 125.424 70.9141 124.891 70.8516 124.297V123.422C70.9141 122.797 71.0312 122.237 71.2031 121.742C71.375 121.247 71.6016 120.826 71.8828 120.477C72.1693 120.122 72.5156 119.854 72.9219 119.672C73.3281 119.484 73.7969 119.391 74.3281 119.391C74.8594 119.391 75.3307 119.495 75.7422 119.703C76.1536 119.906 76.5 120.198 76.7812 120.578C77.0625 120.958 77.2734 121.414 77.4141 121.945C77.5599 122.471 77.6328 123.057 77.6328 123.703ZM76.1797 123.867V123.703C76.1797 123.281 76.1354 122.885 76.0469 122.516C75.9583 122.141 75.8203 121.812 75.6328 121.531C75.4505 121.245 75.2161 121.021 74.9297 120.859C74.6432 120.693 74.3021 120.609 73.9062 120.609C73.5417 120.609 73.224 120.672 72.9531 120.797C72.6875 120.922 72.4609 121.091 72.2734 121.305C72.0859 121.513 71.9323 121.753 71.8125 122.023C71.6979 122.289 71.612 122.565 71.5547 122.852V124.875C71.6589 125.24 71.8047 125.583 71.9922 125.906C72.1797 126.224 72.4297 126.482 72.7422 126.68C73.0547 126.872 73.4479 126.969 73.9219 126.969C74.3125 126.969 74.6484 126.888 74.9297 126.727C75.2161 126.56 75.4505 126.333 75.6328 126.047C75.8203 125.76 75.9583 125.432 76.0469 125.062C76.1354 124.688 76.1797 124.289 76.1797 123.867ZM79.0938 123.867V123.688C79.0938 123.078 79.1823 122.513 79.3594 121.992C79.5365 121.466 79.7917 121.01 80.125 120.625C80.4583 120.234 80.862 119.932 81.3359 119.719C81.8099 119.5 82.3411 119.391 82.9297 119.391C83.5234 119.391 84.0573 119.5 84.5312 119.719C85.0104 119.932 85.4167 120.234 85.75 120.625C86.0885 121.01 86.3464 121.466 86.5234 121.992C86.7005 122.513 86.7891 123.078 86.7891 123.688V123.867C86.7891 124.477 86.7005 125.042 86.5234 125.562C86.3464 126.083 86.0885 126.539 85.75 126.93C85.4167 127.315 85.013 127.617 84.5391 127.836C84.0703 128.049 83.5391 128.156 82.9453 128.156C82.3516 128.156 81.8177 128.049 81.3438 127.836C80.8698 127.617 80.4635 127.315 80.125 126.93C79.7917 126.539 79.5365 126.083 79.3594 125.562C79.1823 125.042 79.0938 124.477 79.0938 123.867ZM80.5391 123.688V123.867C80.5391 124.289 80.5885 124.688 80.6875 125.062C80.7865 125.432 80.9349 125.76 81.1328 126.047C81.3359 126.333 81.5885 126.56 81.8906 126.727C82.1927 126.888 82.5443 126.969 82.9453 126.969C83.3411 126.969 83.6875 126.888 83.9844 126.727C84.2865 126.56 84.5365 126.333 84.7344 126.047C84.9323 125.76 85.0807 125.432 85.1797 125.062C85.2839 124.688 85.3359 124.289 85.3359 123.867V123.688C85.3359 123.271 85.2839 122.878 85.1797 122.508C85.0807 122.133 84.9297 121.802 84.7266 121.516C84.5286 121.224 84.2786 120.995 83.9766 120.828C83.6797 120.661 83.3307 120.578 82.9297 120.578C82.5339 120.578 82.1849 120.661 81.8828 120.828C81.5859 120.995 81.3359 121.224 81.1328 121.516C80.9349 121.802 80.7865 122.133 80.6875 122.508C80.5885 122.878 80.5391 123.271 80.5391 123.688ZM90.0469 120.875V128H88.6016V119.547H90.0078L90.0469 120.875ZM92.6875 119.5L92.6797 120.844C92.5599 120.818 92.4453 120.802 92.3359 120.797C92.2318 120.786 92.112 120.781 91.9766 120.781C91.6432 120.781 91.349 120.833 91.0938 120.938C90.8385 121.042 90.6224 121.188 90.4453 121.375C90.2682 121.562 90.1276 121.786 90.0234 122.047C89.9245 122.302 89.8594 122.583 89.8281 122.891L89.4219 123.125C89.4219 122.615 89.4714 122.135 89.5703 121.688C89.6745 121.24 89.8333 120.844 90.0469 120.5C90.2604 120.151 90.5312 119.88 90.8594 119.688C91.1927 119.49 91.5885 119.391 92.0469 119.391C92.151 119.391 92.2708 119.404 92.4062 119.43C92.5417 119.451 92.6354 119.474 92.6875 119.5ZM97.9531 119.547V120.656H93.3828V119.547H97.9531ZM94.9297 117.492H96.375V125.906C96.375 126.193 96.4193 126.409 96.5078 126.555C96.5964 126.701 96.7109 126.797 96.8516 126.844C96.9922 126.891 97.1432 126.914 97.3047 126.914C97.4245 126.914 97.5495 126.904 97.6797 126.883C97.8151 126.857 97.9167 126.836 97.9844 126.82L97.9922 128C97.8776 128.036 97.7266 128.07 97.5391 128.102C97.3568 128.138 97.1354 128.156 96.875 128.156C96.5208 128.156 96.1953 128.086 95.8984 127.945C95.6016 127.805 95.3646 127.57 95.1875 127.242C95.0156 126.909 94.9297 126.461 94.9297 125.898V117.492ZM104.633 126.555V122.203C104.633 121.87 104.565 121.581 104.43 121.336C104.299 121.086 104.102 120.893 103.836 120.758C103.57 120.622 103.242 120.555 102.852 120.555C102.487 120.555 102.167 120.617 101.891 120.742C101.62 120.867 101.406 121.031 101.25 121.234C101.099 121.438 101.023 121.656 101.023 121.891H99.5781C99.5781 121.589 99.6562 121.289 99.8125 120.992C99.9688 120.695 100.193 120.427 100.484 120.188C100.781 119.943 101.135 119.75 101.547 119.609C101.964 119.464 102.427 119.391 102.938 119.391C103.552 119.391 104.094 119.495 104.562 119.703C105.036 119.911 105.406 120.227 105.672 120.648C105.943 121.065 106.078 121.589 106.078 122.219V126.156C106.078 126.438 106.102 126.737 106.148 127.055C106.201 127.372 106.276 127.646 106.375 127.875V128H104.867C104.794 127.833 104.737 127.612 104.695 127.336C104.654 127.055 104.633 126.794 104.633 126.555ZM104.883 122.875L104.898 123.891H103.438C103.026 123.891 102.659 123.924 102.336 123.992C102.013 124.055 101.742 124.151 101.523 124.281C101.305 124.411 101.138 124.576 101.023 124.773C100.909 124.966 100.852 125.193 100.852 125.453C100.852 125.719 100.911 125.961 101.031 126.18C101.151 126.398 101.331 126.573 101.57 126.703C101.815 126.828 102.115 126.891 102.469 126.891C102.911 126.891 103.302 126.797 103.641 126.609C103.979 126.422 104.247 126.193 104.445 125.922C104.648 125.651 104.758 125.388 104.773 125.133L105.391 125.828C105.354 126.047 105.255 126.289 105.094 126.555C104.932 126.82 104.716 127.076 104.445 127.32C104.18 127.56 103.862 127.76 103.492 127.922C103.128 128.078 102.716 128.156 102.258 128.156C101.685 128.156 101.182 128.044 100.75 127.82C100.323 127.596 99.9896 127.297 99.75 126.922C99.5156 126.542 99.3984 126.117 99.3984 125.648C99.3984 125.195 99.487 124.797 99.6641 124.453C99.8411 124.104 100.096 123.815 100.43 123.586C100.763 123.352 101.164 123.174 101.633 123.055C102.102 122.935 102.625 122.875 103.203 122.875H104.883ZM113.891 116V128H112.438V116H113.891ZM121.383 126.047V119.547H122.836V128H121.453L121.383 126.047ZM121.656 124.266L122.258 124.25C122.258 124.812 122.198 125.333 122.078 125.812C121.964 126.286 121.776 126.698 121.516 127.047C121.255 127.396 120.914 127.669 120.492 127.867C120.07 128.06 119.557 128.156 118.953 128.156C118.542 128.156 118.164 128.096 117.82 127.977C117.482 127.857 117.19 127.672 116.945 127.422C116.701 127.172 116.51 126.846 116.375 126.445C116.245 126.044 116.18 125.562 116.18 125V119.547H117.625V125.016C117.625 125.396 117.667 125.711 117.75 125.961C117.839 126.206 117.956 126.401 118.102 126.547C118.253 126.688 118.419 126.786 118.602 126.844C118.789 126.901 118.982 126.93 119.18 126.93C119.794 126.93 120.281 126.812 120.641 126.578C121 126.339 121.258 126.018 121.414 125.617C121.576 125.211 121.656 124.76 121.656 124.266ZM128.422 126.969C128.766 126.969 129.083 126.898 129.375 126.758C129.667 126.617 129.906 126.424 130.094 126.18C130.281 125.93 130.388 125.646 130.414 125.328H131.789C131.763 125.828 131.594 126.294 131.281 126.727C130.974 127.154 130.57 127.5 130.07 127.766C129.57 128.026 129.021 128.156 128.422 128.156C127.786 128.156 127.232 128.044 126.758 127.82C126.289 127.596 125.898 127.289 125.586 126.898C125.279 126.508 125.047 126.06 124.891 125.555C124.74 125.044 124.664 124.505 124.664 123.938V123.609C124.664 123.042 124.74 122.505 124.891 122C125.047 121.49 125.279 121.039 125.586 120.648C125.898 120.258 126.289 119.951 126.758 119.727C127.232 119.503 127.786 119.391 128.422 119.391C129.083 119.391 129.661 119.526 130.156 119.797C130.651 120.062 131.039 120.427 131.32 120.891C131.607 121.349 131.763 121.87 131.789 122.453H130.414C130.388 122.104 130.289 121.789 130.117 121.508C129.951 121.227 129.721 121.003 129.43 120.836C129.143 120.664 128.807 120.578 128.422 120.578C127.979 120.578 127.607 120.667 127.305 120.844C127.008 121.016 126.771 121.25 126.594 121.547C126.422 121.839 126.297 122.164 126.219 122.523C126.146 122.878 126.109 123.24 126.109 123.609V123.938C126.109 124.307 126.146 124.672 126.219 125.031C126.292 125.391 126.414 125.716 126.586 126.008C126.763 126.299 127 126.534 127.297 126.711C127.599 126.883 127.974 126.969 128.422 126.969ZM136.953 119.547V120.656H132.383V119.547H136.953ZM133.93 117.492H135.375V125.906C135.375 126.193 135.419 126.409 135.508 126.555C135.596 126.701 135.711 126.797 135.852 126.844C135.992 126.891 136.143 126.914 136.305 126.914C136.424 126.914 136.549 126.904 136.68 126.883C136.815 126.857 136.917 126.836 136.984 126.82L136.992 128C136.878 128.036 136.727 128.07 136.539 128.102C136.357 128.138 136.135 128.156 135.875 128.156C135.521 128.156 135.195 128.086 134.898 127.945C134.602 127.805 134.365 127.57 134.188 127.242C134.016 126.909 133.93 126.461 133.93 125.898V117.492ZM143.82 126.047V119.547H145.273V128H143.891L143.82 126.047ZM144.094 124.266L144.695 124.25C144.695 124.812 144.635 125.333 144.516 125.812C144.401 126.286 144.214 126.698 143.953 127.047C143.693 127.396 143.352 127.669 142.93 127.867C142.508 128.06 141.995 128.156 141.391 128.156C140.979 128.156 140.602 128.096 140.258 127.977C139.919 127.857 139.628 127.672 139.383 127.422C139.138 127.172 138.948 126.846 138.812 126.445C138.682 126.044 138.617 125.562 138.617 125V119.547H140.062V125.016C140.062 125.396 140.104 125.711 140.188 125.961C140.276 126.206 140.393 126.401 140.539 126.547C140.69 126.688 140.857 126.786 141.039 126.844C141.227 126.901 141.419 126.93 141.617 126.93C142.232 126.93 142.719 126.812 143.078 126.578C143.438 126.339 143.695 126.018 143.852 125.617C144.013 125.211 144.094 124.76 144.094 124.266ZM152.398 125.758C152.398 125.549 152.352 125.357 152.258 125.18C152.169 124.997 151.984 124.833 151.703 124.688C151.427 124.536 151.01 124.406 150.453 124.297C149.984 124.198 149.56 124.081 149.18 123.945C148.805 123.81 148.484 123.646 148.219 123.453C147.958 123.26 147.758 123.034 147.617 122.773C147.477 122.513 147.406 122.208 147.406 121.859C147.406 121.526 147.479 121.211 147.625 120.914C147.776 120.617 147.987 120.354 148.258 120.125C148.534 119.896 148.865 119.716 149.25 119.586C149.635 119.456 150.065 119.391 150.539 119.391C151.216 119.391 151.794 119.51 152.273 119.75C152.753 119.99 153.12 120.31 153.375 120.711C153.63 121.107 153.758 121.547 153.758 122.031H152.312C152.312 121.797 152.242 121.57 152.102 121.352C151.966 121.128 151.766 120.943 151.5 120.797C151.24 120.651 150.919 120.578 150.539 120.578C150.138 120.578 149.812 120.641 149.562 120.766C149.318 120.885 149.138 121.039 149.023 121.227C148.914 121.414 148.859 121.612 148.859 121.82C148.859 121.977 148.885 122.117 148.938 122.242C148.995 122.362 149.094 122.474 149.234 122.578C149.375 122.677 149.573 122.771 149.828 122.859C150.083 122.948 150.409 123.036 150.805 123.125C151.497 123.281 152.068 123.469 152.516 123.688C152.964 123.906 153.297 124.174 153.516 124.492C153.734 124.81 153.844 125.195 153.844 125.648C153.844 126.018 153.766 126.357 153.609 126.664C153.458 126.971 153.237 127.237 152.945 127.461C152.659 127.68 152.315 127.852 151.914 127.977C151.518 128.096 151.073 128.156 150.578 128.156C149.833 128.156 149.203 128.023 148.688 127.758C148.172 127.492 147.781 127.148 147.516 126.727C147.25 126.305 147.117 125.859 147.117 125.391H148.57C148.591 125.786 148.706 126.102 148.914 126.336C149.122 126.565 149.378 126.729 149.68 126.828C149.982 126.922 150.281 126.969 150.578 126.969C150.974 126.969 151.305 126.917 151.57 126.812C151.841 126.708 152.047 126.565 152.188 126.383C152.328 126.201 152.398 125.992 152.398 125.758ZM164.633 125.758C164.633 125.549 164.586 125.357 164.492 125.18C164.404 124.997 164.219 124.833 163.938 124.688C163.661 124.536 163.245 124.406 162.688 124.297C162.219 124.198 161.794 124.081 161.414 123.945C161.039 123.81 160.719 123.646 160.453 123.453C160.193 123.26 159.992 123.034 159.852 122.773C159.711 122.513 159.641 122.208 159.641 121.859C159.641 121.526 159.714 121.211 159.859 120.914C160.01 120.617 160.221 120.354 160.492 120.125C160.768 119.896 161.099 119.716 161.484 119.586C161.87 119.456 162.299 119.391 162.773 119.391C163.451 119.391 164.029 119.51 164.508 119.75C164.987 119.99 165.354 120.31 165.609 120.711C165.865 121.107 165.992 121.547 165.992 122.031H164.547C164.547 121.797 164.477 121.57 164.336 121.352C164.201 121.128 164 120.943 163.734 120.797C163.474 120.651 163.154 120.578 162.773 120.578C162.372 120.578 162.047 120.641 161.797 120.766C161.552 120.885 161.372 121.039 161.258 121.227C161.148 121.414 161.094 121.612 161.094 121.82C161.094 121.977 161.12 122.117 161.172 122.242C161.229 122.362 161.328 122.474 161.469 122.578C161.609 122.677 161.807 122.771 162.062 122.859C162.318 122.948 162.643 123.036 163.039 123.125C163.732 123.281 164.302 123.469 164.75 123.688C165.198 123.906 165.531 124.174 165.75 124.492C165.969 124.81 166.078 125.195 166.078 125.648C166.078 126.018 166 126.357 165.844 126.664C165.693 126.971 165.471 127.237 165.18 127.461C164.893 127.68 164.549 127.852 164.148 127.977C163.753 128.096 163.307 128.156 162.812 128.156C162.068 128.156 161.438 128.023 160.922 127.758C160.406 127.492 160.016 127.148 159.75 126.727C159.484 126.305 159.352 125.859 159.352 125.391H160.805C160.826 125.786 160.94 126.102 161.148 126.336C161.357 126.565 161.612 126.729 161.914 126.828C162.216 126.922 162.516 126.969 162.812 126.969C163.208 126.969 163.539 126.917 163.805 126.812C164.076 126.708 164.281 126.565 164.422 126.383C164.562 126.201 164.633 125.992 164.633 125.758ZM171.484 128.156C170.896 128.156 170.362 128.057 169.883 127.859C169.409 127.656 169 127.372 168.656 127.008C168.318 126.643 168.057 126.211 167.875 125.711C167.693 125.211 167.602 124.664 167.602 124.07V123.742C167.602 123.055 167.703 122.443 167.906 121.906C168.109 121.365 168.385 120.906 168.734 120.531C169.083 120.156 169.479 119.872 169.922 119.68C170.365 119.487 170.823 119.391 171.297 119.391C171.901 119.391 172.422 119.495 172.859 119.703C173.302 119.911 173.664 120.203 173.945 120.578C174.227 120.948 174.435 121.385 174.57 121.891C174.706 122.391 174.773 122.938 174.773 123.531V124.18H168.461V123H173.328V122.891C173.307 122.516 173.229 122.151 173.094 121.797C172.964 121.443 172.755 121.151 172.469 120.922C172.182 120.693 171.792 120.578 171.297 120.578C170.969 120.578 170.667 120.648 170.391 120.789C170.115 120.924 169.878 121.128 169.68 121.398C169.482 121.669 169.328 122 169.219 122.391C169.109 122.781 169.055 123.232 169.055 123.742V124.07C169.055 124.471 169.109 124.849 169.219 125.203C169.333 125.552 169.497 125.859 169.711 126.125C169.93 126.391 170.193 126.599 170.5 126.75C170.812 126.901 171.167 126.977 171.562 126.977C172.073 126.977 172.505 126.872 172.859 126.664C173.214 126.456 173.523 126.177 173.789 125.828L174.664 126.523C174.482 126.799 174.25 127.062 173.969 127.312C173.688 127.562 173.341 127.766 172.93 127.922C172.523 128.078 172.042 128.156 171.484 128.156ZM177.898 121.227V128H176.445V119.547H177.82L177.898 121.227ZM177.602 123.453L176.93 123.43C176.935 122.852 177.01 122.318 177.156 121.828C177.302 121.333 177.518 120.904 177.805 120.539C178.091 120.174 178.448 119.893 178.875 119.695C179.302 119.492 179.797 119.391 180.359 119.391C180.755 119.391 181.12 119.448 181.453 119.562C181.786 119.672 182.076 119.846 182.32 120.086C182.565 120.326 182.755 120.633 182.891 121.008C183.026 121.383 183.094 121.836 183.094 122.367V128H181.648V122.438C181.648 121.995 181.573 121.641 181.422 121.375C181.276 121.109 181.068 120.917 180.797 120.797C180.526 120.672 180.208 120.609 179.844 120.609C179.417 120.609 179.06 120.685 178.773 120.836C178.487 120.987 178.258 121.195 178.086 121.461C177.914 121.727 177.789 122.031 177.711 122.375C177.638 122.714 177.602 123.073 177.602 123.453ZM183.078 122.656L182.109 122.953C182.115 122.49 182.19 122.044 182.336 121.617C182.487 121.19 182.703 120.81 182.984 120.477C183.271 120.143 183.622 119.88 184.039 119.688C184.456 119.49 184.932 119.391 185.469 119.391C185.922 119.391 186.323 119.451 186.672 119.57C187.026 119.69 187.323 119.875 187.562 120.125C187.807 120.37 187.992 120.685 188.117 121.07C188.242 121.456 188.305 121.914 188.305 122.445V128H186.852V122.43C186.852 121.956 186.776 121.589 186.625 121.328C186.479 121.062 186.271 120.878 186 120.773C185.734 120.664 185.417 120.609 185.047 120.609C184.729 120.609 184.448 120.664 184.203 120.773C183.958 120.883 183.753 121.034 183.586 121.227C183.419 121.414 183.292 121.63 183.203 121.875C183.12 122.12 183.078 122.38 183.078 122.656ZM191.938 121.172V131.25H190.484V119.547H191.812L191.938 121.172ZM197.633 123.703V123.867C197.633 124.482 197.56 125.052 197.414 125.578C197.268 126.099 197.055 126.552 196.773 126.938C196.497 127.323 196.156 127.622 195.75 127.836C195.344 128.049 194.878 128.156 194.352 128.156C193.815 128.156 193.341 128.068 192.93 127.891C192.518 127.714 192.169 127.456 191.883 127.117C191.596 126.779 191.367 126.372 191.195 125.898C191.029 125.424 190.914 124.891 190.852 124.297V123.422C190.914 122.797 191.031 122.237 191.203 121.742C191.375 121.247 191.602 120.826 191.883 120.477C192.169 120.122 192.516 119.854 192.922 119.672C193.328 119.484 193.797 119.391 194.328 119.391C194.859 119.391 195.331 119.495 195.742 119.703C196.154 119.906 196.5 120.198 196.781 120.578C197.062 120.958 197.273 121.414 197.414 121.945C197.56 122.471 197.633 123.057 197.633 123.703ZM196.18 123.867V123.703C196.18 123.281 196.135 122.885 196.047 122.516C195.958 122.141 195.82 121.812 195.633 121.531C195.451 121.245 195.216 121.021 194.93 120.859C194.643 120.693 194.302 120.609 193.906 120.609C193.542 120.609 193.224 120.672 192.953 120.797C192.688 120.922 192.461 121.091 192.273 121.305C192.086 121.513 191.932 121.753 191.812 122.023C191.698 122.289 191.612 122.565 191.555 122.852V124.875C191.659 125.24 191.805 125.583 191.992 125.906C192.18 126.224 192.43 126.482 192.742 126.68C193.055 126.872 193.448 126.969 193.922 126.969C194.312 126.969 194.648 126.888 194.93 126.727C195.216 126.56 195.451 126.333 195.633 126.047C195.82 125.76 195.958 125.432 196.047 125.062C196.135 124.688 196.18 124.289 196.18 123.867ZM202.984 128.156C202.396 128.156 201.862 128.057 201.383 127.859C200.909 127.656 200.5 127.372 200.156 127.008C199.818 126.643 199.557 126.211 199.375 125.711C199.193 125.211 199.102 124.664 199.102 124.07V123.742C199.102 123.055 199.203 122.443 199.406 121.906C199.609 121.365 199.885 120.906 200.234 120.531C200.583 120.156 200.979 119.872 201.422 119.68C201.865 119.487 202.323 119.391 202.797 119.391C203.401 119.391 203.922 119.495 204.359 119.703C204.802 119.911 205.164 120.203 205.445 120.578C205.727 120.948 205.935 121.385 206.07 121.891C206.206 122.391 206.273 122.938 206.273 123.531V124.18H199.961V123H204.828V122.891C204.807 122.516 204.729 122.151 204.594 121.797C204.464 121.443 204.255 121.151 203.969 120.922C203.682 120.693 203.292 120.578 202.797 120.578C202.469 120.578 202.167 120.648 201.891 120.789C201.615 120.924 201.378 121.128 201.18 121.398C200.982 121.669 200.828 122 200.719 122.391C200.609 122.781 200.555 123.232 200.555 123.742V124.07C200.555 124.471 200.609 124.849 200.719 125.203C200.833 125.552 200.997 125.859 201.211 126.125C201.43 126.391 201.693 126.599 202 126.75C202.312 126.901 202.667 126.977 203.062 126.977C203.573 126.977 204.005 126.872 204.359 126.664C204.714 126.456 205.023 126.177 205.289 125.828L206.164 126.523C205.982 126.799 205.75 127.062 205.469 127.312C205.188 127.562 204.841 127.766 204.43 127.922C204.023 128.078 203.542 128.156 202.984 128.156ZM209.406 120.875V128H207.961V119.547H209.367L209.406 120.875ZM212.047 119.5L212.039 120.844C211.919 120.818 211.805 120.802 211.695 120.797C211.591 120.786 211.471 120.781 211.336 120.781C211.003 120.781 210.708 120.833 210.453 120.938C210.198 121.042 209.982 121.188 209.805 121.375C209.628 121.562 209.487 121.786 209.383 122.047C209.284 122.302 209.219 122.583 209.188 122.891L208.781 123.125C208.781 122.615 208.831 122.135 208.93 121.688C209.034 121.24 209.193 120.844 209.406 120.5C209.62 120.151 209.891 119.88 210.219 119.688C210.552 119.49 210.948 119.391 211.406 119.391C211.51 119.391 211.63 119.404 211.766 119.43C211.901 119.451 211.995 119.474 212.047 119.5ZM222.68 126.359V116H224.133V128H222.805L222.68 126.359ZM216.992 123.867V123.703C216.992 123.057 217.07 122.471 217.227 121.945C217.388 121.414 217.615 120.958 217.906 120.578C218.203 120.198 218.555 119.906 218.961 119.703C219.372 119.495 219.831 119.391 220.336 119.391C220.867 119.391 221.331 119.484 221.727 119.672C222.128 119.854 222.466 120.122 222.742 120.477C223.023 120.826 223.245 121.247 223.406 121.742C223.568 122.237 223.68 122.797 223.742 123.422V124.141C223.685 124.76 223.573 125.318 223.406 125.812C223.245 126.307 223.023 126.729 222.742 127.078C222.466 127.427 222.128 127.695 221.727 127.883C221.326 128.065 220.857 128.156 220.32 128.156C219.826 128.156 219.372 128.049 218.961 127.836C218.555 127.622 218.203 127.323 217.906 126.938C217.615 126.552 217.388 126.099 217.227 125.578C217.07 125.052 216.992 124.482 216.992 123.867ZM218.445 123.703V123.867C218.445 124.289 218.487 124.685 218.57 125.055C218.659 125.424 218.794 125.75 218.977 126.031C219.159 126.312 219.391 126.534 219.672 126.695C219.953 126.852 220.289 126.93 220.68 126.93C221.159 126.93 221.552 126.828 221.859 126.625C222.172 126.422 222.422 126.154 222.609 125.82C222.797 125.487 222.943 125.125 223.047 124.734V122.852C222.984 122.565 222.893 122.289 222.773 122.023C222.659 121.753 222.508 121.513 222.32 121.305C222.138 121.091 221.911 120.922 221.641 120.797C221.375 120.672 221.06 120.609 220.695 120.609C220.299 120.609 219.958 120.693 219.672 120.859C219.391 121.021 219.159 121.245 218.977 121.531C218.794 121.812 218.659 122.141 218.57 122.516C218.487 122.885 218.445 123.281 218.445 123.703ZM226 123.867V123.688C226 123.078 226.089 122.513 226.266 121.992C226.443 121.466 226.698 121.01 227.031 120.625C227.365 120.234 227.768 119.932 228.242 119.719C228.716 119.5 229.247 119.391 229.836 119.391C230.43 119.391 230.964 119.5 231.438 119.719C231.917 119.932 232.323 120.234 232.656 120.625C232.995 121.01 233.253 121.466 233.43 121.992C233.607 122.513 233.695 123.078 233.695 123.688V123.867C233.695 124.477 233.607 125.042 233.43 125.562C233.253 126.083 232.995 126.539 232.656 126.93C232.323 127.315 231.919 127.617 231.445 127.836C230.977 128.049 230.445 128.156 229.852 128.156C229.258 128.156 228.724 128.049 228.25 127.836C227.776 127.617 227.37 127.315 227.031 126.93C226.698 126.539 226.443 126.083 226.266 125.562C226.089 125.042 226 124.477 226 123.867ZM227.445 123.688V123.867C227.445 124.289 227.495 124.688 227.594 125.062C227.693 125.432 227.841 125.76 228.039 126.047C228.242 126.333 228.495 126.56 228.797 126.727C229.099 126.888 229.451 126.969 229.852 126.969C230.247 126.969 230.594 126.888 230.891 126.727C231.193 126.56 231.443 126.333 231.641 126.047C231.839 125.76 231.987 125.432 232.086 125.062C232.19 124.688 232.242 124.289 232.242 123.867V123.688C232.242 123.271 232.19 122.878 232.086 122.508C231.987 122.133 231.836 121.802 231.633 121.516C231.435 121.224 231.185 120.995 230.883 120.828C230.586 120.661 230.237 120.578 229.836 120.578C229.44 120.578 229.091 120.661 228.789 120.828C228.492 120.995 228.242 121.224 228.039 121.516C227.841 121.802 227.693 122.133 227.594 122.508C227.495 122.878 227.445 123.271 227.445 123.688ZM236.953 121.352V128H235.508V119.547H236.875L236.953 121.352ZM236.609 123.453L236.008 123.43C236.013 122.852 236.099 122.318 236.266 121.828C236.432 121.333 236.667 120.904 236.969 120.539C237.271 120.174 237.63 119.893 238.047 119.695C238.469 119.492 238.935 119.391 239.445 119.391C239.862 119.391 240.237 119.448 240.57 119.562C240.904 119.672 241.188 119.849 241.422 120.094C241.661 120.339 241.844 120.656 241.969 121.047C242.094 121.432 242.156 121.904 242.156 122.461V128H240.703V122.445C240.703 122.003 240.638 121.648 240.508 121.383C240.378 121.112 240.188 120.917 239.938 120.797C239.688 120.672 239.38 120.609 239.016 120.609C238.656 120.609 238.328 120.685 238.031 120.836C237.74 120.987 237.487 121.195 237.273 121.461C237.065 121.727 236.901 122.031 236.781 122.375C236.667 122.714 236.609 123.073 236.609 123.453ZM247.859 128.156C247.271 128.156 246.737 128.057 246.258 127.859C245.784 127.656 245.375 127.372 245.031 127.008C244.693 126.643 244.432 126.211 244.25 125.711C244.068 125.211 243.977 124.664 243.977 124.07V123.742C243.977 123.055 244.078 122.443 244.281 121.906C244.484 121.365 244.76 120.906 245.109 120.531C245.458 120.156 245.854 119.872 246.297 119.68C246.74 119.487 247.198 119.391 247.672 119.391C248.276 119.391 248.797 119.495 249.234 119.703C249.677 119.911 250.039 120.203 250.32 120.578C250.602 120.948 250.81 121.385 250.945 121.891C251.081 122.391 251.148 122.938 251.148 123.531V124.18H244.836V123H249.703V122.891C249.682 122.516 249.604 122.151 249.469 121.797C249.339 121.443 249.13 121.151 248.844 120.922C248.557 120.693 248.167 120.578 247.672 120.578C247.344 120.578 247.042 120.648 246.766 120.789C246.49 120.924 246.253 121.128 246.055 121.398C245.857 121.669 245.703 122 245.594 122.391C245.484 122.781 245.43 123.232 245.43 123.742V124.07C245.43 124.471 245.484 124.849 245.594 125.203C245.708 125.552 245.872 125.859 246.086 126.125C246.305 126.391 246.568 126.599 246.875 126.75C247.188 126.901 247.542 126.977 247.938 126.977C248.448 126.977 248.88 126.872 249.234 126.664C249.589 126.456 249.898 126.177 250.164 125.828L251.039 126.523C250.857 126.799 250.625 127.062 250.344 127.312C250.062 127.562 249.716 127.766 249.305 127.922C248.898 128.078 248.417 128.156 247.859 128.156ZM256.219 126.969C256.562 126.969 256.88 126.898 257.172 126.758C257.464 126.617 257.703 126.424 257.891 126.18C258.078 125.93 258.185 125.646 258.211 125.328H259.586C259.56 125.828 259.391 126.294 259.078 126.727C258.771 127.154 258.367 127.5 257.867 127.766C257.367 128.026 256.818 128.156 256.219 128.156C255.583 128.156 255.029 128.044 254.555 127.82C254.086 127.596 253.695 127.289 253.383 126.898C253.076 126.508 252.844 126.06 252.688 125.555C252.536 125.044 252.461 124.505 252.461 123.938V123.609C252.461 123.042 252.536 122.505 252.688 122C252.844 121.49 253.076 121.039 253.383 120.648C253.695 120.258 254.086 119.951 254.555 119.727C255.029 119.503 255.583 119.391 256.219 119.391C256.88 119.391 257.458 119.526 257.953 119.797C258.448 120.062 258.836 120.427 259.117 120.891C259.404 121.349 259.56 121.87 259.586 122.453H258.211C258.185 122.104 258.086 121.789 257.914 121.508C257.747 121.227 257.518 121.003 257.227 120.836C256.94 120.664 256.604 120.578 256.219 120.578C255.776 120.578 255.404 120.667 255.102 120.844C254.805 121.016 254.568 121.25 254.391 121.547C254.219 121.839 254.094 122.164 254.016 122.523C253.943 122.878 253.906 123.24 253.906 123.609V123.938C253.906 124.307 253.943 124.672 254.016 125.031C254.089 125.391 254.211 125.716 254.383 126.008C254.56 126.299 254.797 126.534 255.094 126.711C255.396 126.883 255.771 126.969 256.219 126.969ZM4.60938 152.156C4.02083 152.156 3.48698 152.057 3.00781 151.859C2.53385 151.656 2.125 151.372 1.78125 151.008C1.44271 150.643 1.18229 150.211 1 149.711C0.817708 149.211 0.726562 148.664 0.726562 148.07V147.742C0.726562 147.055 0.828125 146.443 1.03125 145.906C1.23438 145.365 1.51042 144.906 1.85938 144.531C2.20833 144.156 2.60417 143.872 3.04688 143.68C3.48958 143.487 3.94792 143.391 4.42188 143.391C5.02604 143.391 5.54688 143.495 5.98438 143.703C6.42708 143.911 6.78906 144.203 7.07031 144.578C7.35156 144.948 7.5599 145.385 7.69531 145.891C7.83073 146.391 7.89844 146.938 7.89844 147.531V148.18H1.58594V147H6.45312V146.891C6.43229 146.516 6.35417 146.151 6.21875 145.797C6.08854 145.443 5.88021 145.151 5.59375 144.922C5.30729 144.693 4.91667 144.578 4.42188 144.578C4.09375 144.578 3.79167 144.648 3.51562 144.789C3.23958 144.924 3.0026 145.128 2.80469 145.398C2.60677 145.669 2.45312 146 2.34375 146.391C2.23438 146.781 2.17969 147.232 2.17969 147.742V148.07C2.17969 148.471 2.23438 148.849 2.34375 149.203C2.45833 149.552 2.6224 149.859 2.83594 150.125C3.05469 150.391 3.31771 150.599 3.625 150.75C3.9375 150.901 4.29167 150.977 4.6875 150.977C5.19792 150.977 5.63021 150.872 5.98438 150.664C6.33854 150.456 6.64844 150.177 6.91406 149.828L7.78906 150.523C7.60677 150.799 7.375 151.062 7.09375 151.312C6.8125 151.562 6.46615 151.766 6.05469 151.922C5.64844 152.078 5.16667 152.156 4.60938 152.156ZM15.0625 143.547H16.375V151.82C16.375 152.565 16.224 153.201 15.9219 153.727C15.6198 154.253 15.1979 154.651 14.6562 154.922C14.1198 155.198 13.5 155.336 12.7969 155.336C12.5052 155.336 12.1615 155.289 11.7656 155.195C11.375 155.107 10.9896 154.953 10.6094 154.734C10.2344 154.521 9.91927 154.232 9.66406 153.867L10.4219 153.008C10.776 153.435 11.1458 153.732 11.5312 153.898C11.9219 154.065 12.3073 154.148 12.6875 154.148C13.1458 154.148 13.5417 154.062 13.875 153.891C14.2083 153.719 14.4661 153.464 14.6484 153.125C14.8359 152.792 14.9297 152.38 14.9297 151.891V145.406L15.0625 143.547ZM9.24219 147.867V147.703C9.24219 147.057 9.31771 146.471 9.46875 145.945C9.625 145.414 9.84635 144.958 10.1328 144.578C10.4245 144.198 10.776 143.906 11.1875 143.703C11.599 143.495 12.0625 143.391 12.5781 143.391C13.1094 143.391 13.5729 143.484 13.9688 143.672C14.3698 143.854 14.7083 144.122 14.9844 144.477C15.2656 144.826 15.487 145.247 15.6484 145.742C15.8099 146.237 15.9219 146.797 15.9844 147.422V148.141C15.9271 148.76 15.8151 149.318 15.6484 149.812C15.487 150.307 15.2656 150.729 14.9844 151.078C14.7083 151.427 14.3698 151.695 13.9688 151.883C13.5677 152.065 13.099 152.156 12.5625 152.156C12.0573 152.156 11.599 152.049 11.1875 151.836C10.7812 151.622 10.4323 151.323 10.1406 150.938C9.84896 150.552 9.625 150.099 9.46875 149.578C9.31771 149.052 9.24219 148.482 9.24219 147.867ZM10.6875 147.703V147.867C10.6875 148.289 10.7292 148.685 10.8125 149.055C10.901 149.424 11.0339 149.75 11.2109 150.031C11.3932 150.312 11.625 150.534 11.9062 150.695C12.1875 150.852 12.5234 150.93 12.9141 150.93C13.3932 150.93 13.7891 150.828 14.1016 150.625C14.4141 150.422 14.6615 150.154 14.8438 149.82C15.0312 149.487 15.1771 149.125 15.2812 148.734V146.852C15.224 146.565 15.1354 146.289 15.0156 146.023C14.901 145.753 14.75 145.513 14.5625 145.305C14.3802 145.091 14.1536 144.922 13.8828 144.797C13.612 144.672 13.2943 144.609 12.9297 144.609C12.5339 144.609 12.1927 144.693 11.9062 144.859C11.625 145.021 11.3932 145.245 11.2109 145.531C11.0339 145.812 10.901 146.141 10.8125 146.516C10.7292 146.885 10.6875 147.281 10.6875 147.703ZM22.0781 152.156C21.4896 152.156 20.9557 152.057 20.4766 151.859C20.0026 151.656 19.5938 151.372 19.25 151.008C18.9115 150.643 18.651 150.211 18.4688 149.711C18.2865 149.211 18.1953 148.664 18.1953 148.07V147.742C18.1953 147.055 18.2969 146.443 18.5 145.906C18.7031 145.365 18.9792 144.906 19.3281 144.531C19.6771 144.156 20.0729 143.872 20.5156 143.68C20.9583 143.487 21.4167 143.391 21.8906 143.391C22.4948 143.391 23.0156 143.495 23.4531 143.703C23.8958 143.911 24.2578 144.203 24.5391 144.578C24.8203 144.948 25.0286 145.385 25.1641 145.891C25.2995 146.391 25.3672 146.938 25.3672 147.531V148.18H19.0547V147H23.9219V146.891C23.901 146.516 23.8229 146.151 23.6875 145.797C23.5573 145.443 23.349 145.151 23.0625 144.922C22.776 144.693 22.3854 144.578 21.8906 144.578C21.5625 144.578 21.2604 144.648 20.9844 144.789C20.7083 144.924 20.4714 145.128 20.2734 145.398C20.0755 145.669 19.9219 146 19.8125 146.391C19.7031 146.781 19.6484 147.232 19.6484 147.742V148.07C19.6484 148.471 19.7031 148.849 19.8125 149.203C19.9271 149.552 20.0911 149.859 20.3047 150.125C20.5234 150.391 20.7865 150.599 21.0938 150.75C21.4062 150.901 21.7604 150.977 22.1562 150.977C22.6667 150.977 23.099 150.872 23.4531 150.664C23.8073 150.456 24.1172 150.177 24.3828 149.828L25.2578 150.523C25.0755 150.799 24.8438 151.062 24.5625 151.312C24.2812 151.562 23.9349 151.766 23.5234 151.922C23.1172 152.078 22.6354 152.156 22.0781 152.156ZM30.5938 143.547V144.656H26.0234V143.547H30.5938ZM27.5703 141.492H29.0156V149.906C29.0156 150.193 29.0599 150.409 29.1484 150.555C29.237 150.701 29.3516 150.797 29.4922 150.844C29.6328 150.891 29.7839 150.914 29.9453 150.914C30.0651 150.914 30.1901 150.904 30.3203 150.883C30.4557 150.857 30.5573 150.836 30.625 150.82L30.6328 152C30.5182 152.036 30.3672 152.07 30.1797 152.102C29.9974 152.138 29.776 152.156 29.5156 152.156C29.1615 152.156 28.8359 152.086 28.5391 151.945C28.2422 151.805 28.0052 151.57 27.8281 151.242C27.6562 150.909 27.5703 150.461 27.5703 149.898V141.492ZM37.8281 140V152H36.375V140H37.8281ZM39.7656 147.867V147.688C39.7656 147.078 39.8542 146.513 40.0312 145.992C40.2083 145.466 40.4635 145.01 40.7969 144.625C41.1302 144.234 41.5339 143.932 42.0078 143.719C42.4818 143.5 43.013 143.391 43.6016 143.391C44.1953 143.391 44.7292 143.5 45.2031 143.719C45.6823 143.932 46.0885 144.234 46.4219 144.625C46.7604 145.01 47.0182 145.466 47.1953 145.992C47.3724 146.513 47.4609 147.078 47.4609 147.688V147.867C47.4609 148.477 47.3724 149.042 47.1953 149.562C47.0182 150.083 46.7604 150.539 46.4219 150.93C46.0885 151.315 45.6849 151.617 45.2109 151.836C44.7422 152.049 44.2109 152.156 43.6172 152.156C43.0234 152.156 42.4896 152.049 42.0156 151.836C41.5417 151.617 41.1354 151.315 40.7969 150.93C40.4635 150.539 40.2083 150.083 40.0312 149.562C39.8542 149.042 39.7656 148.477 39.7656 147.867ZM41.2109 147.688V147.867C41.2109 148.289 41.2604 148.688 41.3594 149.062C41.4583 149.432 41.6068 149.76 41.8047 150.047C42.0078 150.333 42.2604 150.56 42.5625 150.727C42.8646 150.888 43.2161 150.969 43.6172 150.969C44.013 150.969 44.3594 150.888 44.6562 150.727C44.9583 150.56 45.2083 150.333 45.4062 150.047C45.6042 149.76 45.7526 149.432 45.8516 149.062C45.9557 148.688 46.0078 148.289 46.0078 147.867V147.688C46.0078 147.271 45.9557 146.878 45.8516 146.508C45.7526 146.133 45.6016 145.802 45.3984 145.516C45.2005 145.224 44.9505 144.995 44.6484 144.828C44.3516 144.661 44.0026 144.578 43.6016 144.578C43.2057 144.578 42.8568 144.661 42.5547 144.828C42.2578 144.995 42.0078 145.224 41.8047 145.516C41.6068 145.802 41.4583 146.133 41.3594 146.508C41.2604 146.878 41.2109 147.271 41.2109 147.688ZM49.2656 140H50.7188V150.359L50.5938 152H49.2656V140ZM56.4297 147.703V147.867C56.4297 148.482 56.3568 149.052 56.2109 149.578C56.0651 150.099 55.8516 150.552 55.5703 150.938C55.2891 151.323 54.9453 151.622 54.5391 151.836C54.1328 152.049 53.6667 152.156 53.1406 152.156C52.6042 152.156 52.1328 152.065 51.7266 151.883C51.3255 151.695 50.987 151.427 50.7109 151.078C50.4349 150.729 50.2135 150.307 50.0469 149.812C49.8854 149.318 49.7734 148.76 49.7109 148.141V147.422C49.7734 146.797 49.8854 146.237 50.0469 145.742C50.2135 145.247 50.4349 144.826 50.7109 144.477C50.987 144.122 51.3255 143.854 51.7266 143.672C52.1276 143.484 52.5938 143.391 53.125 143.391C53.6562 143.391 54.1276 143.495 54.5391 143.703C54.9505 143.906 55.2943 144.198 55.5703 144.578C55.8516 144.958 56.0651 145.414 56.2109 145.945C56.3568 146.471 56.4297 147.057 56.4297 147.703ZM54.9766 147.867V147.703C54.9766 147.281 54.9375 146.885 54.8594 146.516C54.7812 146.141 54.6562 145.812 54.4844 145.531C54.3125 145.245 54.0859 145.021 53.8047 144.859C53.5234 144.693 53.1771 144.609 52.7656 144.609C52.401 144.609 52.0833 144.672 51.8125 144.797C51.5469 144.922 51.3203 145.091 51.1328 145.305C50.9453 145.513 50.7917 145.753 50.6719 146.023C50.5573 146.289 50.4714 146.565 50.4141 146.852V148.734C50.4974 149.099 50.6328 149.451 50.8203 149.789C51.013 150.122 51.2682 150.396 51.5859 150.609C51.9089 150.823 52.3073 150.93 52.7812 150.93C53.1719 150.93 53.5052 150.852 53.7812 150.695C54.0625 150.534 54.2891 150.312 54.4609 150.031C54.638 149.75 54.7682 149.424 54.8516 149.055C54.9349 148.685 54.9766 148.289 54.9766 147.867ZM57.875 147.867V147.688C57.875 147.078 57.9635 146.513 58.1406 145.992C58.3177 145.466 58.5729 145.01 58.9062 144.625C59.2396 144.234 59.6432 143.932 60.1172 143.719C60.5911 143.5 61.1224 143.391 61.7109 143.391C62.3047 143.391 62.8385 143.5 63.3125 143.719C63.7917 143.932 64.1979 144.234 64.5312 144.625C64.8698 145.01 65.1276 145.466 65.3047 145.992C65.4818 146.513 65.5703 147.078 65.5703 147.688V147.867C65.5703 148.477 65.4818 149.042 65.3047 149.562C65.1276 150.083 64.8698 150.539 64.5312 150.93C64.1979 151.315 63.7943 151.617 63.3203 151.836C62.8516 152.049 62.3203 152.156 61.7266 152.156C61.1328 152.156 60.599 152.049 60.125 151.836C59.651 151.617 59.2448 151.315 58.9062 150.93C58.5729 150.539 58.3177 150.083 58.1406 149.562C57.9635 149.042 57.875 148.477 57.875 147.867ZM59.3203 147.688V147.867C59.3203 148.289 59.3698 148.688 59.4688 149.062C59.5677 149.432 59.7161 149.76 59.9141 150.047C60.1172 150.333 60.3698 150.56 60.6719 150.727C60.974 150.888 61.3255 150.969 61.7266 150.969C62.1224 150.969 62.4688 150.888 62.7656 150.727C63.0677 150.56 63.3177 150.333 63.5156 150.047C63.7135 149.76 63.862 149.432 63.9609 149.062C64.0651 148.688 64.1172 148.289 64.1172 147.867V147.688C64.1172 147.271 64.0651 146.878 63.9609 146.508C63.862 146.133 63.7109 145.802 63.5078 145.516C63.3099 145.224 63.0599 144.995 62.7578 144.828C62.4609 144.661 62.112 144.578 61.7109 144.578C61.3151 144.578 60.9661 144.661 60.6641 144.828C60.3672 144.995 60.1172 145.224 59.9141 145.516C59.7161 145.802 59.5677 146.133 59.4688 146.508C59.3698 146.878 59.3203 147.271 59.3203 147.688ZM68.8281 144.875V152H67.3828V143.547H68.7891L68.8281 144.875ZM71.4688 143.5L71.4609 144.844C71.3411 144.818 71.2266 144.802 71.1172 144.797C71.013 144.786 70.8932 144.781 70.7578 144.781C70.4245 144.781 70.1302 144.833 69.875 144.938C69.6198 145.042 69.4036 145.188 69.2266 145.375C69.0495 145.562 68.9089 145.786 68.8047 146.047C68.7057 146.302 68.6406 146.583 68.6094 146.891L68.2031 147.125C68.2031 146.615 68.2526 146.135 68.3516 145.688C68.4557 145.24 68.6146 144.844 68.8281 144.5C69.0417 144.151 69.3125 143.88 69.6406 143.688C69.974 143.49 70.3698 143.391 70.8281 143.391C70.9323 143.391 71.0521 143.404 71.1875 143.43C71.3229 143.451 71.4167 143.474 71.4688 143.5ZM76.7344 143.547V144.656H72.1641V143.547H76.7344ZM73.7109 141.492H75.1562V149.906C75.1562 150.193 75.2005 150.409 75.2891 150.555C75.3776 150.701 75.4922 150.797 75.6328 150.844C75.7734 150.891 75.9245 150.914 76.0859 150.914C76.2057 150.914 76.3307 150.904 76.4609 150.883C76.5964 150.857 76.6979 150.836 76.7656 150.82L76.7734 152C76.6589 152.036 76.5078 152.07 76.3203 152.102C76.138 152.138 75.9167 152.156 75.6562 152.156C75.3021 152.156 74.9766 152.086 74.6797 151.945C74.3828 151.805 74.1458 151.57 73.9688 151.242C73.7969 150.909 73.7109 150.461 73.7109 149.898V141.492ZM80 143.547V152H78.5469V143.547H80ZM78.4375 141.305C78.4375 141.07 78.5078 140.872 78.6484 140.711C78.7943 140.549 79.0078 140.469 79.2891 140.469C79.5651 140.469 79.776 140.549 79.9219 140.711C80.0729 140.872 80.1484 141.07 80.1484 141.305C80.1484 141.529 80.0729 141.721 79.9219 141.883C79.776 142.039 79.5651 142.117 79.2891 142.117C79.0078 142.117 78.7943 142.039 78.6484 141.883C78.5078 141.721 78.4375 141.529 78.4375 141.305ZM87.2422 149.758C87.2422 149.549 87.1953 149.357 87.1016 149.18C87.013 148.997 86.8281 148.833 86.5469 148.688C86.2708 148.536 85.8542 148.406 85.2969 148.297C84.8281 148.198 84.4036 148.081 84.0234 147.945C83.6484 147.81 83.3281 147.646 83.0625 147.453C82.8021 147.26 82.6016 147.034 82.4609 146.773C82.3203 146.513 82.25 146.208 82.25 145.859C82.25 145.526 82.3229 145.211 82.4688 144.914C82.6198 144.617 82.8307 144.354 83.1016 144.125C83.3776 143.896 83.7083 143.716 84.0938 143.586C84.4792 143.456 84.9089 143.391 85.3828 143.391C86.0599 143.391 86.638 143.51 87.1172 143.75C87.5964 143.99 87.9635 144.31 88.2188 144.711C88.474 145.107 88.6016 145.547 88.6016 146.031H87.1562C87.1562 145.797 87.0859 145.57 86.9453 145.352C86.8099 145.128 86.6094 144.943 86.3438 144.797C86.0833 144.651 85.763 144.578 85.3828 144.578C84.9818 144.578 84.6562 144.641 84.4062 144.766C84.1615 144.885 83.9818 145.039 83.8672 145.227C83.7578 145.414 83.7031 145.612 83.7031 145.82C83.7031 145.977 83.7292 146.117 83.7812 146.242C83.8385 146.362 83.9375 146.474 84.0781 146.578C84.2188 146.677 84.4167 146.771 84.6719 146.859C84.9271 146.948 85.2526 147.036 85.6484 147.125C86.3411 147.281 86.9115 147.469 87.3594 147.688C87.8073 147.906 88.1406 148.174 88.3594 148.492C88.5781 148.81 88.6875 149.195 88.6875 149.648C88.6875 150.018 88.6094 150.357 88.4531 150.664C88.3021 150.971 88.0807 151.237 87.7891 151.461C87.5026 151.68 87.1589 151.852 86.7578 151.977C86.362 152.096 85.9167 152.156 85.4219 152.156C84.6771 152.156 84.0469 152.023 83.5312 151.758C83.0156 151.492 82.625 151.148 82.3594 150.727C82.0938 150.305 81.9609 149.859 81.9609 149.391H83.4141C83.4349 149.786 83.5495 150.102 83.7578 150.336C83.9661 150.565 84.2214 150.729 84.5234 150.828C84.8255 150.922 85.125 150.969 85.4219 150.969C85.8177 150.969 86.1484 150.917 86.4141 150.812C86.6849 150.708 86.8906 150.565 87.0312 150.383C87.1719 150.201 87.2422 149.992 87.2422 149.758ZM96.125 140V152H94.6719V140H96.125ZM101.953 152.156C101.365 152.156 100.831 152.057 100.352 151.859C99.8776 151.656 99.4688 151.372 99.125 151.008C98.7865 150.643 98.526 150.211 98.3438 149.711C98.1615 149.211 98.0703 148.664 98.0703 148.07V147.742C98.0703 147.055 98.1719 146.443 98.375 145.906C98.5781 145.365 98.8542 144.906 99.2031 144.531C99.5521 144.156 99.9479 143.872 100.391 143.68C100.833 143.487 101.292 143.391 101.766 143.391C102.37 143.391 102.891 143.495 103.328 143.703C103.771 143.911 104.133 144.203 104.414 144.578C104.695 144.948 104.904 145.385 105.039 145.891C105.174 146.391 105.242 146.938 105.242 147.531V148.18H98.9297V147H103.797V146.891C103.776 146.516 103.698 146.151 103.562 145.797C103.432 145.443 103.224 145.151 102.938 144.922C102.651 144.693 102.26 144.578 101.766 144.578C101.438 144.578 101.135 144.648 100.859 144.789C100.583 144.924 100.346 145.128 100.148 145.398C99.9505 145.669 99.7969 146 99.6875 146.391C99.5781 146.781 99.5234 147.232 99.5234 147.742V148.07C99.5234 148.471 99.5781 148.849 99.6875 149.203C99.8021 149.552 99.9661 149.859 100.18 150.125C100.398 150.391 100.661 150.599 100.969 150.75C101.281 150.901 101.635 150.977 102.031 150.977C102.542 150.977 102.974 150.872 103.328 150.664C103.682 150.456 103.992 150.177 104.258 149.828L105.133 150.523C104.951 150.799 104.719 151.062 104.438 151.312C104.156 151.562 103.81 151.766 103.398 151.922C102.992 152.078 102.51 152.156 101.953 152.156ZM106.547 147.867V147.688C106.547 147.078 106.635 146.513 106.812 145.992C106.99 145.466 107.245 145.01 107.578 144.625C107.911 144.234 108.315 143.932 108.789 143.719C109.263 143.5 109.794 143.391 110.383 143.391C110.977 143.391 111.51 143.5 111.984 143.719C112.464 143.932 112.87 144.234 113.203 144.625C113.542 145.01 113.799 145.466 113.977 145.992C114.154 146.513 114.242 147.078 114.242 147.688V147.867C114.242 148.477 114.154 149.042 113.977 149.562C113.799 150.083 113.542 150.539 113.203 150.93C112.87 151.315 112.466 151.617 111.992 151.836C111.523 152.049 110.992 152.156 110.398 152.156C109.805 152.156 109.271 152.049 108.797 151.836C108.323 151.617 107.917 151.315 107.578 150.93C107.245 150.539 106.99 150.083 106.812 149.562C106.635 149.042 106.547 148.477 106.547 147.867ZM107.992 147.688V147.867C107.992 148.289 108.042 148.688 108.141 149.062C108.24 149.432 108.388 149.76 108.586 150.047C108.789 150.333 109.042 150.56 109.344 150.727C109.646 150.888 109.997 150.969 110.398 150.969C110.794 150.969 111.141 150.888 111.438 150.727C111.74 150.56 111.99 150.333 112.188 150.047C112.385 149.76 112.534 149.432 112.633 149.062C112.737 148.688 112.789 148.289 112.789 147.867V147.688C112.789 147.271 112.737 146.878 112.633 146.508C112.534 146.133 112.383 145.802 112.18 145.516C111.982 145.224 111.732 144.995 111.43 144.828C111.133 144.661 110.784 144.578 110.383 144.578C109.987 144.578 109.638 144.661 109.336 144.828C109.039 144.995 108.789 145.224 108.586 145.516C108.388 145.802 108.24 146.133 108.141 146.508C108.042 146.878 107.992 147.271 107.992 147.688ZM125.008 150.555V146.203C125.008 145.87 124.94 145.581 124.805 145.336C124.674 145.086 124.477 144.893 124.211 144.758C123.945 144.622 123.617 144.555 123.227 144.555C122.862 144.555 122.542 144.617 122.266 144.742C121.995 144.867 121.781 145.031 121.625 145.234C121.474 145.438 121.398 145.656 121.398 145.891H119.953C119.953 145.589 120.031 145.289 120.188 144.992C120.344 144.695 120.568 144.427 120.859 144.188C121.156 143.943 121.51 143.75 121.922 143.609C122.339 143.464 122.802 143.391 123.312 143.391C123.927 143.391 124.469 143.495 124.938 143.703C125.411 143.911 125.781 144.227 126.047 144.648C126.318 145.065 126.453 145.589 126.453 146.219V150.156C126.453 150.438 126.477 150.737 126.523 151.055C126.576 151.372 126.651 151.646 126.75 151.875V152H125.242C125.169 151.833 125.112 151.612 125.07 151.336C125.029 151.055 125.008 150.794 125.008 150.555ZM125.258 146.875L125.273 147.891H123.812C123.401 147.891 123.034 147.924 122.711 147.992C122.388 148.055 122.117 148.151 121.898 148.281C121.68 148.411 121.513 148.576 121.398 148.773C121.284 148.966 121.227 149.193 121.227 149.453C121.227 149.719 121.286 149.961 121.406 150.18C121.526 150.398 121.706 150.573 121.945 150.703C122.19 150.828 122.49 150.891 122.844 150.891C123.286 150.891 123.677 150.797 124.016 150.609C124.354 150.422 124.622 150.193 124.82 149.922C125.023 149.651 125.133 149.388 125.148 149.133L125.766 149.828C125.729 150.047 125.63 150.289 125.469 150.555C125.307 150.82 125.091 151.076 124.82 151.32C124.555 151.56 124.237 151.76 123.867 151.922C123.503 152.078 123.091 152.156 122.633 152.156C122.06 152.156 121.557 152.044 121.125 151.82C120.698 151.596 120.365 151.297 120.125 150.922C119.891 150.542 119.773 150.117 119.773 149.648C119.773 149.195 119.862 148.797 120.039 148.453C120.216 148.104 120.471 147.815 120.805 147.586C121.138 147.352 121.539 147.174 122.008 147.055C122.477 146.935 123 146.875 123.578 146.875H125.258ZM132.109 150.969C132.453 150.969 132.771 150.898 133.062 150.758C133.354 150.617 133.594 150.424 133.781 150.18C133.969 149.93 134.076 149.646 134.102 149.328H135.477C135.451 149.828 135.281 150.294 134.969 150.727C134.661 151.154 134.258 151.5 133.758 151.766C133.258 152.026 132.708 152.156 132.109 152.156C131.474 152.156 130.919 152.044 130.445 151.82C129.977 151.596 129.586 151.289 129.273 150.898C128.966 150.508 128.734 150.06 128.578 149.555C128.427 149.044 128.352 148.505 128.352 147.938V147.609C128.352 147.042 128.427 146.505 128.578 146C128.734 145.49 128.966 145.039 129.273 144.648C129.586 144.258 129.977 143.951 130.445 143.727C130.919 143.503 131.474 143.391 132.109 143.391C132.771 143.391 133.349 143.526 133.844 143.797C134.339 144.062 134.727 144.427 135.008 144.891C135.294 145.349 135.451 145.87 135.477 146.453H134.102C134.076 146.104 133.977 145.789 133.805 145.508C133.638 145.227 133.409 145.003 133.117 144.836C132.831 144.664 132.495 144.578 132.109 144.578C131.667 144.578 131.294 144.667 130.992 144.844C130.695 145.016 130.458 145.25 130.281 145.547C130.109 145.839 129.984 146.164 129.906 146.523C129.833 146.878 129.797 147.24 129.797 147.609V147.938C129.797 148.307 129.833 148.672 129.906 149.031C129.979 149.391 130.102 149.716 130.273 150.008C130.451 150.299 130.688 150.534 130.984 150.711C131.286 150.883 131.661 150.969 132.109 150.969ZM143 152H141.555V142.812C141.555 142.172 141.68 141.63 141.93 141.188C142.18 140.745 142.536 140.409 143 140.18C143.464 139.951 144.013 139.836 144.648 139.836C145.023 139.836 145.391 139.883 145.75 139.977C146.109 140.065 146.479 140.177 146.859 140.312L146.617 141.531C146.378 141.438 146.099 141.349 145.781 141.266C145.469 141.177 145.125 141.133 144.75 141.133C144.13 141.133 143.682 141.273 143.406 141.555C143.135 141.831 143 142.25 143 142.812V152ZM144.727 143.547V144.656H140.219V143.547H144.727ZM147.57 143.547V152H146.125V143.547H147.57ZM151.391 145.352V152H149.945V143.547H151.312L151.391 145.352ZM151.047 147.453L150.445 147.43C150.451 146.852 150.536 146.318 150.703 145.828C150.87 145.333 151.104 144.904 151.406 144.539C151.708 144.174 152.068 143.893 152.484 143.695C152.906 143.492 153.372 143.391 153.883 143.391C154.299 143.391 154.674 143.448 155.008 143.562C155.341 143.672 155.625 143.849 155.859 144.094C156.099 144.339 156.281 144.656 156.406 145.047C156.531 145.432 156.594 145.904 156.594 146.461V152H155.141V146.445C155.141 146.003 155.076 145.648 154.945 145.383C154.815 145.112 154.625 144.917 154.375 144.797C154.125 144.672 153.818 144.609 153.453 144.609C153.094 144.609 152.766 144.685 152.469 144.836C152.177 144.987 151.924 145.195 151.711 145.461C151.503 145.727 151.339 146.031 151.219 146.375C151.104 146.714 151.047 147.073 151.047 147.453ZM160.359 143.547V152H158.906V143.547H160.359ZM158.797 141.305C158.797 141.07 158.867 140.872 159.008 140.711C159.154 140.549 159.367 140.469 159.648 140.469C159.924 140.469 160.135 140.549 160.281 140.711C160.432 140.872 160.508 141.07 160.508 141.305C160.508 141.529 160.432 141.721 160.281 141.883C160.135 142.039 159.924 142.117 159.648 142.117C159.367 142.117 159.154 142.039 159.008 141.883C158.867 141.721 158.797 141.529 158.797 141.305ZM162.672 140H164.125V150.359L164 152H162.672V140ZM169.836 147.703V147.867C169.836 148.482 169.763 149.052 169.617 149.578C169.471 150.099 169.258 150.552 168.977 150.938C168.695 151.323 168.352 151.622 167.945 151.836C167.539 152.049 167.073 152.156 166.547 152.156C166.01 152.156 165.539 152.065 165.133 151.883C164.732 151.695 164.393 151.427 164.117 151.078C163.841 150.729 163.62 150.307 163.453 149.812C163.292 149.318 163.18 148.76 163.117 148.141V147.422C163.18 146.797 163.292 146.237 163.453 145.742C163.62 145.247 163.841 144.826 164.117 144.477C164.393 144.122 164.732 143.854 165.133 143.672C165.534 143.484 166 143.391 166.531 143.391C167.062 143.391 167.534 143.495 167.945 143.703C168.357 143.906 168.701 144.198 168.977 144.578C169.258 144.958 169.471 145.414 169.617 145.945C169.763 146.471 169.836 147.057 169.836 147.703ZM168.383 147.867V147.703C168.383 147.281 168.344 146.885 168.266 146.516C168.188 146.141 168.062 145.812 167.891 145.531C167.719 145.245 167.492 145.021 167.211 144.859C166.93 144.693 166.583 144.609 166.172 144.609C165.807 144.609 165.49 144.672 165.219 144.797C164.953 144.922 164.727 145.091 164.539 145.305C164.352 145.513 164.198 145.753 164.078 146.023C163.964 146.289 163.878 146.565 163.82 146.852V148.734C163.904 149.099 164.039 149.451 164.227 149.789C164.419 150.122 164.674 150.396 164.992 150.609C165.315 150.823 165.714 150.93 166.188 150.93C166.578 150.93 166.911 150.852 167.188 150.695C167.469 150.534 167.695 150.312 167.867 150.031C168.044 149.75 168.174 149.424 168.258 149.055C168.341 148.685 168.383 148.289 168.383 147.867ZM176.836 150.047V143.547H178.289V152H176.906L176.836 150.047ZM177.109 148.266L177.711 148.25C177.711 148.812 177.651 149.333 177.531 149.812C177.417 150.286 177.229 150.698 176.969 151.047C176.708 151.396 176.367 151.669 175.945 151.867C175.523 152.06 175.01 152.156 174.406 152.156C173.995 152.156 173.617 152.096 173.273 151.977C172.935 151.857 172.643 151.672 172.398 151.422C172.154 151.172 171.964 150.846 171.828 150.445C171.698 150.044 171.633 149.562 171.633 149V143.547H173.078V149.016C173.078 149.396 173.12 149.711 173.203 149.961C173.292 150.206 173.409 150.401 173.555 150.547C173.706 150.688 173.872 150.786 174.055 150.844C174.242 150.901 174.435 150.93 174.633 150.93C175.247 150.93 175.734 150.812 176.094 150.578C176.453 150.339 176.711 150.018 176.867 149.617C177.029 149.211 177.109 148.76 177.109 148.266ZM185.414 149.758C185.414 149.549 185.367 149.357 185.273 149.18C185.185 148.997 185 148.833 184.719 148.688C184.443 148.536 184.026 148.406 183.469 148.297C183 148.198 182.576 148.081 182.195 147.945C181.82 147.81 181.5 147.646 181.234 147.453C180.974 147.26 180.773 147.034 180.633 146.773C180.492 146.513 180.422 146.208 180.422 145.859C180.422 145.526 180.495 145.211 180.641 144.914C180.792 144.617 181.003 144.354 181.273 144.125C181.549 143.896 181.88 143.716 182.266 143.586C182.651 143.456 183.081 143.391 183.555 143.391C184.232 143.391 184.81 143.51 185.289 143.75C185.768 143.99 186.135 144.31 186.391 144.711C186.646 145.107 186.773 145.547 186.773 146.031H185.328C185.328 145.797 185.258 145.57 185.117 145.352C184.982 145.128 184.781 144.943 184.516 144.797C184.255 144.651 183.935 144.578 183.555 144.578C183.154 144.578 182.828 144.641 182.578 144.766C182.333 144.885 182.154 145.039 182.039 145.227C181.93 145.414 181.875 145.612 181.875 145.82C181.875 145.977 181.901 146.117 181.953 146.242C182.01 146.362 182.109 146.474 182.25 146.578C182.391 146.677 182.589 146.771 182.844 146.859C183.099 146.948 183.424 147.036 183.82 147.125C184.513 147.281 185.083 147.469 185.531 147.688C185.979 147.906 186.312 148.174 186.531 148.492C186.75 148.81 186.859 149.195 186.859 149.648C186.859 150.018 186.781 150.357 186.625 150.664C186.474 150.971 186.253 151.237 185.961 151.461C185.674 151.68 185.331 151.852 184.93 151.977C184.534 152.096 184.089 152.156 183.594 152.156C182.849 152.156 182.219 152.023 181.703 151.758C181.188 151.492 180.797 151.148 180.531 150.727C180.266 150.305 180.133 149.859 180.133 149.391H181.586C181.607 149.786 181.721 150.102 181.93 150.336C182.138 150.565 182.393 150.729 182.695 150.828C182.997 150.922 183.297 150.969 183.594 150.969C183.99 150.969 184.32 150.917 184.586 150.812C184.857 150.708 185.062 150.565 185.203 150.383C185.344 150.201 185.414 149.992 185.414 149.758ZM194.172 145.352V152H192.727V143.547H194.094L194.172 145.352ZM193.828 147.453L193.227 147.43C193.232 146.852 193.318 146.318 193.484 145.828C193.651 145.333 193.885 144.904 194.188 144.539C194.49 144.174 194.849 143.893 195.266 143.695C195.688 143.492 196.154 143.391 196.664 143.391C197.081 143.391 197.456 143.448 197.789 143.562C198.122 143.672 198.406 143.849 198.641 144.094C198.88 144.339 199.062 144.656 199.188 145.047C199.312 145.432 199.375 145.904 199.375 146.461V152H197.922V146.445C197.922 146.003 197.857 145.648 197.727 145.383C197.596 145.112 197.406 144.917 197.156 144.797C196.906 144.672 196.599 144.609 196.234 144.609C195.875 144.609 195.547 144.685 195.25 144.836C194.958 144.987 194.706 145.195 194.492 145.461C194.284 145.727 194.12 146.031 194 146.375C193.885 146.714 193.828 147.073 193.828 147.453ZM203.141 143.547V152H201.688V143.547H203.141ZM201.578 141.305C201.578 141.07 201.648 140.872 201.789 140.711C201.935 140.549 202.148 140.469 202.43 140.469C202.706 140.469 202.917 140.549 203.062 140.711C203.214 140.872 203.289 141.07 203.289 141.305C203.289 141.529 203.214 141.721 203.062 141.883C202.917 142.039 202.706 142.117 202.43 142.117C202.148 142.117 201.935 142.039 201.789 141.883C201.648 141.721 201.578 141.529 201.578 141.305ZM210.383 149.758C210.383 149.549 210.336 149.357 210.242 149.18C210.154 148.997 209.969 148.833 209.688 148.688C209.411 148.536 208.995 148.406 208.438 148.297C207.969 148.198 207.544 148.081 207.164 147.945C206.789 147.81 206.469 147.646 206.203 147.453C205.943 147.26 205.742 147.034 205.602 146.773C205.461 146.513 205.391 146.208 205.391 145.859C205.391 145.526 205.464 145.211 205.609 144.914C205.76 144.617 205.971 144.354 206.242 144.125C206.518 143.896 206.849 143.716 207.234 143.586C207.62 143.456 208.049 143.391 208.523 143.391C209.201 143.391 209.779 143.51 210.258 143.75C210.737 143.99 211.104 144.31 211.359 144.711C211.615 145.107 211.742 145.547 211.742 146.031H210.297C210.297 145.797 210.227 145.57 210.086 145.352C209.951 145.128 209.75 144.943 209.484 144.797C209.224 144.651 208.904 144.578 208.523 144.578C208.122 144.578 207.797 144.641 207.547 144.766C207.302 144.885 207.122 145.039 207.008 145.227C206.898 145.414 206.844 145.612 206.844 145.82C206.844 145.977 206.87 146.117 206.922 146.242C206.979 146.362 207.078 146.474 207.219 146.578C207.359 146.677 207.557 146.771 207.812 146.859C208.068 146.948 208.393 147.036 208.789 147.125C209.482 147.281 210.052 147.469 210.5 147.688C210.948 147.906 211.281 148.174 211.5 148.492C211.719 148.81 211.828 149.195 211.828 149.648C211.828 150.018 211.75 150.357 211.594 150.664C211.443 150.971 211.221 151.237 210.93 151.461C210.643 151.68 210.299 151.852 209.898 151.977C209.503 152.096 209.057 152.156 208.562 152.156C207.818 152.156 207.188 152.023 206.672 151.758C206.156 151.492 205.766 151.148 205.5 150.727C205.234 150.305 205.102 149.859 205.102 149.391H206.555C206.576 149.786 206.69 150.102 206.898 150.336C207.107 150.565 207.362 150.729 207.664 150.828C207.966 150.922 208.266 150.969 208.562 150.969C208.958 150.969 209.289 150.917 209.555 150.812C209.826 150.708 210.031 150.565 210.172 150.383C210.312 150.201 210.383 149.992 210.383 149.758ZM215.297 143.547V152H213.844V143.547H215.297ZM213.734 141.305C213.734 141.07 213.805 140.872 213.945 140.711C214.091 140.549 214.305 140.469 214.586 140.469C214.862 140.469 215.073 140.549 215.219 140.711C215.37 140.872 215.445 141.07 215.445 141.305C215.445 141.529 215.37 141.721 215.219 141.883C215.073 142.039 214.862 142.117 214.586 142.117C214.305 142.117 214.091 142.039 213.945 141.883C213.805 141.721 213.734 141.529 213.734 141.305ZM217.641 151.234C217.641 150.99 217.716 150.784 217.867 150.617C218.023 150.445 218.247 150.359 218.539 150.359C218.831 150.359 219.052 150.445 219.203 150.617C219.359 150.784 219.438 150.99 219.438 151.234C219.438 151.474 219.359 151.677 219.203 151.844C219.052 152.01 218.831 152.094 218.539 152.094C218.247 152.094 218.023 152.01 217.867 151.844C217.716 151.677 217.641 151.474 217.641 151.234Z" fill="#65665C"/>
</svg>
